<svg width="65" height="65" viewBox="0 0 65 65" fill="none" xmlns="http://www.w3.org/2000/svg">
<g filter="url(#filter0_dd_1034_1194)">
<path d="M48.0455 16.3946C39.2178 7.86847 25.2224 7.86847 16.3946 16.3946C7.65443 25.444 7.9051 39.8652 16.9545 48.6054C25.7822 57.1315 39.7776 57.1315 48.6054 48.6054C57.3456 39.5561 57.0949 25.1348 48.0455 16.3946ZM47.5347 47.5348L47.5272 47.5272C39.2203 55.8265 25.7585 55.8203 17.4592 47.5135C9.15995 39.2066 9.16609 25.7449 17.4729 17.4456C25.7798 9.14629 39.2416 9.15243 47.5409 17.4592C51.5273 21.4492 53.7649 26.8597 53.7613 32.5C53.7617 38.139 51.5219 43.5472 47.5347 47.5348Z" fill="#F3F3F3"/>
<path d="M45.2947 38.9847L41.0273 34.7324C40.0588 33.7616 38.4866 33.7598 37.5158 34.7283C37.5143 34.7297 37.513 34.731 37.5116 34.7324L35.0666 37.1775C34.8816 37.3629 34.5901 37.3885 34.3756 37.2382C33.0374 36.303 31.7847 35.251 30.6322 34.0946C29.5999 33.0647 28.6504 31.9552 27.7922 30.7763C27.6367 30.5645 27.6593 30.2709 27.8454 30.0853L30.3511 27.5795C31.3186 26.6102 31.3186 25.0407 30.3511 24.0714L26.0837 19.804C25.1004 18.8639 23.5514 18.8639 22.5681 19.804L21.2165 21.1556C19.1753 23.1738 18.4466 26.1707 19.3333 28.9008C19.995 30.8982 20.9303 32.7943 22.1125 34.535C23.1767 36.1308 24.3977 37.6163 25.7573 38.9695C27.2354 40.4582 28.8727 41.7797 30.6397 42.9104C32.5822 44.178 34.7151 45.1265 36.9573 45.7199C37.5337 45.862 38.1253 45.9334 38.7189 45.9325C40.7541 45.9201 42.7011 45.1009 44.133 43.6545L45.2948 42.4927C46.2621 41.5235 46.2621 39.954 45.2947 38.9847ZM44.2194 41.4572L44.2164 41.4602L44.2239 41.4374L43.0621 42.5992C41.5694 44.1107 39.3955 44.7327 37.3292 44.2393C35.2474 43.6821 33.2684 42.7951 31.4672 41.6121C29.7937 40.5426 28.2429 39.2923 26.8429 37.8837C25.5546 36.6049 24.3973 35.2008 23.3879 33.6922C22.2838 32.069 21.4099 30.3007 20.791 28.4376C20.0815 26.249 20.6694 23.8474 22.3097 22.2339L23.6612 20.8823C24.037 20.5049 24.6476 20.5035 25.025 20.8793L25.028 20.8823L29.2954 25.1497C29.6729 25.5255 29.6742 26.1361 29.2985 26.5135L29.2954 26.5165L26.7896 29.0223C26.0707 29.7335 25.9802 30.8636 26.5771 31.68C27.4834 32.9238 28.4863 34.0942 29.5764 35.1806C30.7919 36.4013 32.1132 37.5117 33.5249 38.4989C34.3406 39.0678 35.4465 38.9719 36.1522 38.2711L38.5744 35.8108C38.9502 35.4334 39.5608 35.432 39.9382 35.8078L39.9412 35.8108L44.2163 40.0935C44.5938 40.4692 44.5952 41.0797 44.2194 41.4572Z" fill="#F3F3F3"/>
</g>
<defs>
<filter id="filter0_dd_1034_1194" x="0" y="0" width="65" height="65" filterUnits="userSpaceOnUse" color-interpolation-filters="sRGB">
<feFlood flood-opacity="0" result="BackgroundImageFix"/>
<feColorMatrix in="SourceAlpha" type="matrix" values="0 0 0 0 0 0 0 0 0 0 0 0 0 0 0 0 0 0 127 0" result="hardAlpha"/>
<feOffset/>
<feGaussianBlur stdDeviation="5"/>
<feComposite in2="hardAlpha" operator="out"/>
<feColorMatrix type="matrix" values="0 0 0 0 0 0 0 0 0 0 0 0 0 0 0 0 0 0 1 0"/>
<feBlend mode="normal" in2="BackgroundImageFix" result="effect1_dropShadow_1034_1194"/>
<feColorMatrix in="SourceAlpha" type="matrix" values="0 0 0 0 0 0 0 0 0 0 0 0 0 0 0 0 0 0 127 0" result="hardAlpha"/>
<feOffset/>
<feGaussianBlur stdDeviation="2"/>
<feComposite in2="hardAlpha" operator="out"/>
<feColorMatrix type="matrix" values="0 0 0 0 0 0 0 0 0 0 0 0 0 0 0 0 0 0 1 0"/>
<feBlend mode="normal" in2="effect1_dropShadow_1034_1194" result="effect2_dropShadow_1034_1194"/>
<feBlend mode="normal" in="SourceGraphic" in2="effect2_dropShadow_1034_1194" result="shape"/>
</filter>
</defs>
</svg>
