<svg width="45" height="45" fill="none" xmlns="http://www.w3.org/2000/svg"><path d="M38.045 6.395c-8.827-8.527-22.823-8.527-31.65 0-8.74 9.049-8.49 23.47.56 32.21 8.827 8.527 22.823 8.527 31.65 0 8.74-9.049 8.49-23.47-.56-32.21Zm-.51 31.14-.008-.008c-8.307 8.3-21.769 8.293-30.068-.014-8.3-8.306-8.293-21.768.014-30.067 8.307-8.3 21.769-8.294 30.068.013A21.261 21.261 0 0 1 43.76 22.5c0 5.639-2.24 11.047-6.226 15.035Z" fill="#F3F3F3"/><path d="m35.295 28.985-4.268-4.253a2.483 2.483 0 0 0-3.511-.004l-.004.004-2.445 2.445a.54.54 0 0 1-.691.061 27.633 27.633 0 0 1-3.744-3.143 27.792 27.792 0 0 1-2.84-3.319.532.532 0 0 1 .053-.69l2.506-2.506a2.483 2.483 0 0 0 0-3.509l-4.267-4.267a2.544 2.544 0 0 0-3.516 0l-1.351 1.352A7.593 7.593 0 0 0 9.332 18.9a22.777 22.777 0 0 0 2.78 5.634 28.804 28.804 0 0 0 3.644 4.434 28.612 28.612 0 0 0 4.883 3.941 21.736 21.736 0 0 0 6.317 2.81 7.313 7.313 0 0 0 1.762.212 7.684 7.684 0 0 0 5.414-2.278l1.162-1.161a2.483 2.483 0 0 0 0-3.508Zm-1.076 2.472-.003.003.008-.023-1.162 1.162a6.074 6.074 0 0 1-5.733 1.64 20.185 20.185 0 0 1-5.862-2.627 27.08 27.08 0 0 1-4.624-3.728 27.284 27.284 0 0 1-3.455-4.192 21.258 21.258 0 0 1-2.597-5.254 6.074 6.074 0 0 1 1.519-6.204l1.351-1.352a.964.964 0 0 1 1.364-.003l.003.003 4.267 4.268a.964.964 0 0 1 .003 1.364l-.003.003-2.505 2.505a2.043 2.043 0 0 0-.213 2.658 29.317 29.317 0 0 0 3 3.5 29.131 29.131 0 0 0 3.948 3.319 2.058 2.058 0 0 0 2.627-.228l2.422-2.46a.964.964 0 0 1 1.364-.003l.003.003 4.275 4.282a.964.964 0 0 1 .003 1.364Z" fill="#F3F3F3"/></svg>