<svg width="25" height="25" fill="none" xmlns="http://www.w3.org/2000/svg"><path d="M12.5 0A12.5 12.5 0 1 0 25 12.5 12.514 12.514 0 0 0 12.5 0Zm0 23.333c-1.72 0-3.523-2.218-4.417-5.833h8.834c-.895 3.615-2.696 5.833-4.417 5.833Zm-4.755-7.5a22.798 22.798 0 0 1 0-6.666h9.51c.165 1.103.247 2.217.245 3.333.002 1.116-.08 2.23-.245 3.333h-9.51ZM1.667 12.5c0-1.132.18-2.257.53-3.333h3.875a23.429 23.429 0 0 0 0 6.666H2.197a10.783 10.783 0 0 1-.53-3.333ZM12.5 1.667c1.72 0 3.523 2.218 4.417 5.833H8.083c.894-3.615 2.696-5.833 4.417-5.833Zm6.428 7.5h3.875a10.75 10.75 0 0 1 0 6.666h-3.875a23.62 23.62 0 0 0 .239-3.333 23.52 23.52 0 0 0-.239-3.333ZM22.101 7.5h-3.473a13.97 13.97 0 0 0-2.139-5.063A10.886 10.886 0 0 1 22.101 7.5ZM8.51 2.437A13.972 13.972 0 0 0 6.37 7.5H2.9a10.886 10.886 0 0 1 5.612-5.063ZM2.899 17.5h3.473a13.971 13.971 0 0 0 2.139 5.063A10.886 10.886 0 0 1 2.899 17.5Zm13.59 5.063a13.97 13.97 0 0 0 2.14-5.063H22.1a10.886 10.886 0 0 1-5.612 5.063Z" fill="#F3F3F3"/></svg>