<svg width="33" height="39" viewBox="0 0 33 39" fill="none" xmlns="http://www.w3.org/2000/svg">
<g filter="url(#filter0_dddi_1294_331)">
<path d="M16.375 30C16.375 30 25.75 21.1156 25.75 14.375C25.75 11.8886 24.7623 9.50403 23.0041 7.74587C21.246 5.98772 18.8614 5 16.375 5C13.8886 5 11.504 5.98772 9.74587 7.74587C7.98772 9.50403 7 11.8886 7 14.375C7 21.1156 16.375 30 16.375 30ZM16.375 19.0625C15.1318 19.0625 13.9395 18.5686 13.0604 17.6896C12.1814 16.8105 11.6875 15.6182 11.6875 14.375C11.6875 13.1318 12.1814 11.9395 13.0604 11.0604C13.9395 10.1814 15.1318 9.6875 16.375 9.6875C17.6182 9.6875 18.8105 10.1814 19.6896 11.0604C20.5686 11.9395 21.0625 13.1318 21.0625 14.375C21.0625 15.6182 20.5686 16.8105 19.6896 17.6896C18.8105 18.5686 17.6182 19.0625 16.375 19.0625Z" fill="white"/>
<path d="M16.375 30C16.375 30 25.75 21.1156 25.75 14.375C25.75 11.8886 24.7623 9.50403 23.0041 7.74587C21.246 5.98772 18.8614 5 16.375 5C13.8886 5 11.504 5.98772 9.74587 7.74587C7.98772 9.50403 7 11.8886 7 14.375C7 21.1156 16.375 30 16.375 30ZM16.375 19.0625C15.1318 19.0625 13.9395 18.5686 13.0604 17.6896C12.1814 16.8105 11.6875 15.6182 11.6875 14.375C11.6875 13.1318 12.1814 11.9395 13.0604 11.0604C13.9395 10.1814 15.1318 9.6875 16.375 9.6875C17.6182 9.6875 18.8105 10.1814 19.6896 11.0604C20.5686 11.9395 21.0625 13.1318 21.0625 14.375C21.0625 15.6182 20.5686 16.8105 19.6896 17.6896C18.8105 18.5686 17.6182 19.0625 16.375 19.0625Z" fill="url(#paint0_linear_1294_331)" fill-opacity="0.55"/>
</g>
<defs>
<filter id="filter0_dddi_1294_331" x="0" y="0" width="32.75" height="39" filterUnits="userSpaceOnUse" color-interpolation-filters="sRGB">
<feFlood flood-opacity="0" result="BackgroundImageFix"/>
<feColorMatrix in="SourceAlpha" type="matrix" values="0 0 0 0 0 0 0 0 0 0 0 0 0 0 0 0 0 0 127 0" result="hardAlpha"/>
<feOffset dy="2"/>
<feGaussianBlur stdDeviation="3.5"/>
<feComposite in2="hardAlpha" operator="out"/>
<feColorMatrix type="matrix" values="0 0 0 0 0.109804 0 0 0 0 0.109804 0 0 0 0 0.109804 0 0 0 0.6 0"/>
<feBlend mode="normal" in2="BackgroundImageFix" result="effect1_dropShadow_1294_331"/>
<feColorMatrix in="SourceAlpha" type="matrix" values="0 0 0 0 0 0 0 0 0 0 0 0 0 0 0 0 0 0 127 0" result="hardAlpha"/>
<feOffset/>
<feGaussianBlur stdDeviation="1"/>
<feComposite in2="hardAlpha" operator="out"/>
<feColorMatrix type="matrix" values="0 0 0 0 0.109804 0 0 0 0 0.109804 0 0 0 0 0.109804 0 0 0 0.9 0"/>
<feBlend mode="normal" in2="effect1_dropShadow_1294_331" result="effect2_dropShadow_1294_331"/>
<feColorMatrix in="SourceAlpha" type="matrix" values="0 0 0 0 0 0 0 0 0 0 0 0 0 0 0 0 0 0 127 0" result="hardAlpha"/>
<feOffset dy="1"/>
<feGaussianBlur stdDeviation="2"/>
<feComposite in2="hardAlpha" operator="out"/>
<feColorMatrix type="matrix" values="0 0 0 0 0.108333 0 0 0 0 0.108333 0 0 0 0 0.108333 0 0 0 1 0"/>
<feBlend mode="normal" in2="effect2_dropShadow_1294_331" result="effect3_dropShadow_1294_331"/>
<feBlend mode="normal" in="SourceGraphic" in2="effect3_dropShadow_1294_331" result="shape"/>
<feColorMatrix in="SourceAlpha" type="matrix" values="0 0 0 0 0 0 0 0 0 0 0 0 0 0 0 0 0 0 127 0" result="hardAlpha"/>
<feOffset dx="1" dy="1"/>
<feGaussianBlur stdDeviation="0.5"/>
<feComposite in2="hardAlpha" operator="arithmetic" k2="-1" k3="1"/>
<feColorMatrix type="matrix" values="0 0 0 0 1 0 0 0 0 1 0 0 0 0 1 0 0 0 0.4 0"/>
<feBlend mode="normal" in2="shape" result="effect4_innerShadow_1294_331"/>
</filter>
<linearGradient id="paint0_linear_1294_331" x1="16.375" y1="5" x2="16.375" y2="30" gradientUnits="userSpaceOnUse">
<stop offset="0.18826"/>
<stop offset="0.512812" stop-color="white"/>
<stop offset="0.887495" stop-color="#070707"/>
</linearGradient>
</defs>
</svg>
