<svg width="38" height="39" viewBox="0 0 38 39" fill="none" xmlns="http://www.w3.org/2000/svg">
<g filter="url(#filter0_dddi_1294_346)">
<path d="M15.928 29.1072V22.8487C15.928 22.4112 16.3744 21.9648 16.8208 21.9648H20.392C20.8384 21.9648 21.2848 22.4112 21.2848 22.8576V29.1072C21.2848 29.344 21.3789 29.5711 21.5463 29.7385C21.7137 29.9059 21.9408 30 22.1776 30H29.32C29.5568 30 29.7839 29.9059 29.9513 29.7385C30.1187 29.5711 30.2128 29.344 30.2128 29.1072V16.608C30.213 16.4907 30.1901 16.3745 30.1454 16.266C30.1006 16.1575 30.035 16.059 29.9521 15.9759L27.5344 13.56V7.68C27.5344 7.44321 27.4403 7.21612 27.2729 7.04869C27.1055 6.88126 26.8784 6.7872 26.6416 6.7872H24.856C24.6192 6.7872 24.3921 6.88126 24.2247 7.04869C24.0573 7.21612 23.9632 7.44321 23.9632 7.68V9.98878L19.2385 5.26229C19.1556 5.17915 19.0571 5.11319 18.9486 5.06818C18.8401 5.02317 18.7238 5 18.6064 5C18.489 5 18.3727 5.02317 18.2642 5.06818C18.1558 5.11319 18.0572 5.17915 17.9743 5.26229L7.2607 15.9759C7.17784 16.059 7.11217 16.1575 7.06744 16.266C7.02271 16.3745 6.99979 16.4907 7 16.608V29.1072C7 29.344 7.09406 29.5711 7.2615 29.7385C7.42893 29.9059 7.65602 30 7.8928 30H15.0352C15.272 30 15.4991 29.9059 15.6665 29.7385C15.8339 29.5711 15.928 29.344 15.928 29.1072Z" fill="white"/>
<path d="M15.928 29.1072V22.8487C15.928 22.4112 16.3744 21.9648 16.8208 21.9648H20.392C20.8384 21.9648 21.2848 22.4112 21.2848 22.8576V29.1072C21.2848 29.344 21.3789 29.5711 21.5463 29.7385C21.7137 29.9059 21.9408 30 22.1776 30H29.32C29.5568 30 29.7839 29.9059 29.9513 29.7385C30.1187 29.5711 30.2128 29.344 30.2128 29.1072V16.608C30.213 16.4907 30.1901 16.3745 30.1454 16.266C30.1006 16.1575 30.035 16.059 29.9521 15.9759L27.5344 13.56V7.68C27.5344 7.44321 27.4403 7.21612 27.2729 7.04869C27.1055 6.88126 26.8784 6.7872 26.6416 6.7872H24.856C24.6192 6.7872 24.3921 6.88126 24.2247 7.04869C24.0573 7.21612 23.9632 7.44321 23.9632 7.68V9.98878L19.2385 5.26229C19.1556 5.17915 19.0571 5.11319 18.9486 5.06818C18.8401 5.02317 18.7238 5 18.6064 5C18.489 5 18.3727 5.02317 18.2642 5.06818C18.1558 5.11319 18.0572 5.17915 17.9743 5.26229L7.2607 15.9759C7.17784 16.059 7.11217 16.1575 7.06744 16.266C7.02271 16.3745 6.99979 16.4907 7 16.608V29.1072C7 29.344 7.09406 29.5711 7.2615 29.7385C7.42893 29.9059 7.65602 30 7.8928 30H15.0352C15.272 30 15.4991 29.9059 15.6665 29.7385C15.8339 29.5711 15.928 29.344 15.928 29.1072Z" fill="url(#paint0_linear_1294_346)" fill-opacity="0.55"/>
</g>
<defs>
<filter id="filter0_dddi_1294_346" x="0" y="0" width="37.2109" height="39" filterUnits="userSpaceOnUse" color-interpolation-filters="sRGB">
<feFlood flood-opacity="0" result="BackgroundImageFix"/>
<feColorMatrix in="SourceAlpha" type="matrix" values="0 0 0 0 0 0 0 0 0 0 0 0 0 0 0 0 0 0 127 0" result="hardAlpha"/>
<feOffset dy="2"/>
<feGaussianBlur stdDeviation="3.5"/>
<feComposite in2="hardAlpha" operator="out"/>
<feColorMatrix type="matrix" values="0 0 0 0 0.109804 0 0 0 0 0.109804 0 0 0 0 0.109804 0 0 0 0.6 0"/>
<feBlend mode="normal" in2="BackgroundImageFix" result="effect1_dropShadow_1294_346"/>
<feColorMatrix in="SourceAlpha" type="matrix" values="0 0 0 0 0 0 0 0 0 0 0 0 0 0 0 0 0 0 127 0" result="hardAlpha"/>
<feOffset/>
<feGaussianBlur stdDeviation="1"/>
<feComposite in2="hardAlpha" operator="out"/>
<feColorMatrix type="matrix" values="0 0 0 0 0.109804 0 0 0 0 0.109804 0 0 0 0 0.109804 0 0 0 0.9 0"/>
<feBlend mode="normal" in2="effect1_dropShadow_1294_346" result="effect2_dropShadow_1294_346"/>
<feColorMatrix in="SourceAlpha" type="matrix" values="0 0 0 0 0 0 0 0 0 0 0 0 0 0 0 0 0 0 127 0" result="hardAlpha"/>
<feOffset dy="1"/>
<feGaussianBlur stdDeviation="2"/>
<feComposite in2="hardAlpha" operator="out"/>
<feColorMatrix type="matrix" values="0 0 0 0 0.108333 0 0 0 0 0.108333 0 0 0 0 0.108333 0 0 0 1 0"/>
<feBlend mode="normal" in2="effect2_dropShadow_1294_346" result="effect3_dropShadow_1294_346"/>
<feBlend mode="normal" in="SourceGraphic" in2="effect3_dropShadow_1294_346" result="shape"/>
<feColorMatrix in="SourceAlpha" type="matrix" values="0 0 0 0 0 0 0 0 0 0 0 0 0 0 0 0 0 0 127 0" result="hardAlpha"/>
<feOffset dx="1" dy="1"/>
<feGaussianBlur stdDeviation="0.5"/>
<feComposite in2="hardAlpha" operator="arithmetic" k2="-1" k3="1"/>
<feColorMatrix type="matrix" values="0 0 0 0 1 0 0 0 0 1 0 0 0 0 1 0 0 0 0.4 0"/>
<feBlend mode="normal" in2="shape" result="effect4_innerShadow_1294_346"/>
</filter>
<linearGradient id="paint0_linear_1294_346" x1="18.6064" y1="5" x2="18.6064" y2="30" gradientUnits="userSpaceOnUse">
<stop offset="0.18826"/>
<stop offset="0.512812" stop-color="white"/>
<stop offset="0.887495" stop-color="#070707"/>
</linearGradient>
</defs>
</svg>
