<svg width="53" height="52" viewBox="0 0 53 52" fill="none" xmlns="http://www.w3.org/2000/svg">
<path d="M14.6144 18.3209C14.6144 16.0404 16.4703 14.1845 18.7508 14.1845H34.2492C36.5303 14.1845 38.3861 16.0405 38.3861 18.3209V33.8193C38.3861 36.1003 36.5297 37.9562 34.2492 37.9562H18.7508C16.4704 37.9562 14.6144 36.0998 14.6144 33.8193V18.3209ZM18.0943 26.0701C18.0943 30.7057 21.8649 34.4763 26.5 34.4763C31.1351 34.4763 34.9062 30.7052 34.9062 26.0701C34.9062 21.435 31.1356 17.6644 26.5 17.6644C21.8649 17.6644 18.0943 21.435 18.0943 26.0701ZM32.5586 17.774C32.5586 19.0183 33.5705 20.03 34.8152 20.03C36.0594 20.03 37.0712 19.0182 37.0712 17.774C37.0712 16.5298 36.0594 15.518 34.8152 15.518C33.5705 15.518 32.5586 16.5297 32.5586 17.774ZM22.1979 26.0695C22.1979 23.6988 24.129 21.7686 26.5 21.7686C28.8714 21.7686 30.8015 23.6993 30.8015 26.0695C30.8015 28.4416 28.8719 30.3722 26.5 30.3722C24.1292 30.3722 22.1979 28.4415 22.1979 26.0695ZM0.85 26C0.85 11.8345 12.3345 0.35 26.5 0.35C40.6655 0.35 52.15 11.8345 52.15 26C52.15 40.1655 40.6655 51.65 26.5 51.65C12.3345 51.65 0.85 40.1655 0.85 26ZM34.2492 42.0598C38.7939 42.0598 42.4897 38.364 42.4897 33.8193V18.3209C42.4897 13.7768 38.7939 10.0804 34.2492 10.0804H18.7508C14.2067 10.0804 10.5103 13.7768 10.5103 18.3209V33.8193C10.5103 38.364 14.2067 42.0598 18.7508 42.0598H34.2492Z" fill="white"/>
<path d="M14.6144 18.3209C14.6144 16.0404 16.4703 14.1845 18.7508 14.1845H34.2492C36.5303 14.1845 38.3861 16.0405 38.3861 18.3209V33.8193C38.3861 36.1003 36.5297 37.9562 34.2492 37.9562H18.7508C16.4704 37.9562 14.6144 36.0998 14.6144 33.8193V18.3209ZM18.0943 26.0701C18.0943 30.7057 21.8649 34.4763 26.5 34.4763C31.1351 34.4763 34.9062 30.7052 34.9062 26.0701C34.9062 21.435 31.1356 17.6644 26.5 17.6644C21.8649 17.6644 18.0943 21.435 18.0943 26.0701ZM32.5586 17.774C32.5586 19.0183 33.5705 20.03 34.8152 20.03C36.0594 20.03 37.0712 19.0182 37.0712 17.774C37.0712 16.5298 36.0594 15.518 34.8152 15.518C33.5705 15.518 32.5586 16.5297 32.5586 17.774ZM22.1979 26.0695C22.1979 23.6988 24.129 21.7686 26.5 21.7686C28.8714 21.7686 30.8015 23.6993 30.8015 26.0695C30.8015 28.4416 28.8719 30.3722 26.5 30.3722C24.1292 30.3722 22.1979 28.4415 22.1979 26.0695ZM0.85 26C0.85 11.8345 12.3345 0.35 26.5 0.35C40.6655 0.35 52.15 11.8345 52.15 26C52.15 40.1655 40.6655 51.65 26.5 51.65C12.3345 51.65 0.85 40.1655 0.85 26ZM34.2492 42.0598C38.7939 42.0598 42.4897 38.364 42.4897 33.8193V18.3209C42.4897 13.7768 38.7939 10.0804 34.2492 10.0804H18.7508C14.2067 10.0804 10.5103 13.7768 10.5103 18.3209V33.8193C10.5103 38.364 14.2067 42.0598 18.7508 42.0598H34.2492Z" fill="url(#paint0_linear_1294_264)" fill-opacity="0.55"/>
<path d="M14.6144 18.3209C14.6144 16.0404 16.4703 14.1845 18.7508 14.1845H34.2492C36.5303 14.1845 38.3861 16.0405 38.3861 18.3209V33.8193C38.3861 36.1003 36.5297 37.9562 34.2492 37.9562H18.7508C16.4704 37.9562 14.6144 36.0998 14.6144 33.8193V18.3209ZM18.0943 26.0701C18.0943 30.7057 21.8649 34.4763 26.5 34.4763C31.1351 34.4763 34.9062 30.7052 34.9062 26.0701C34.9062 21.435 31.1356 17.6644 26.5 17.6644C21.8649 17.6644 18.0943 21.435 18.0943 26.0701ZM32.5586 17.774C32.5586 19.0183 33.5705 20.03 34.8152 20.03C36.0594 20.03 37.0712 19.0182 37.0712 17.774C37.0712 16.5298 36.0594 15.518 34.8152 15.518C33.5705 15.518 32.5586 16.5297 32.5586 17.774ZM22.1979 26.0695C22.1979 23.6988 24.129 21.7686 26.5 21.7686C28.8714 21.7686 30.8015 23.6993 30.8015 26.0695C30.8015 28.4416 28.8719 30.3722 26.5 30.3722C24.1292 30.3722 22.1979 28.4415 22.1979 26.0695ZM0.85 26C0.85 11.8345 12.3345 0.35 26.5 0.35C40.6655 0.35 52.15 11.8345 52.15 26C52.15 40.1655 40.6655 51.65 26.5 51.65C12.3345 51.65 0.85 40.1655 0.85 26ZM34.2492 42.0598C38.7939 42.0598 42.4897 38.364 42.4897 33.8193V18.3209C42.4897 13.7768 38.7939 10.0804 34.2492 10.0804H18.7508C14.2067 10.0804 10.5103 13.7768 10.5103 18.3209V33.8193C10.5103 38.364 14.2067 42.0598 18.7508 42.0598H34.2492Z" stroke="#F3F3F3" stroke-width="0.7"/>
<defs>
<linearGradient id="paint0_linear_1294_264" x1="26.5" y1="0" x2="26.5" y2="52" gradientUnits="userSpaceOnUse">
<stop offset="0.18826"/>
<stop offset="0.512812" stop-color="white"/>
<stop offset="0.887495" stop-color="#070707"/>
</linearGradient>
</defs>
</svg>
