<svg width="64" height="74" viewBox="0 0 64 74" fill="none" xmlns="http://www.w3.org/2000/svg">
<g filter="url(#filter0_d_1164_117)">
<path d="M20.8975 44.742C20.8975 43.8452 20.2748 43.3104 19.1759 43.3104C18.7272 43.3104 18.4233 43.3547 18.2643 43.397V46.2743C18.4526 46.3166 18.6839 46.3307 19.0028 46.3307C20.1741 46.3307 20.8975 45.7395 20.8975 44.742Z" fill="white"/>
<path d="M20.8975 44.742C20.8975 43.8452 20.2748 43.3104 19.1759 43.3104C18.7272 43.3104 18.4233 43.3547 18.2643 43.397V46.2743C18.4526 46.3166 18.6839 46.3307 19.0028 46.3307C20.1741 46.3307 20.8975 45.7395 20.8975 44.742Z" fill="url(#paint0_linear_1164_117)" fill-opacity="0.55"/>
<path d="M27.7 43.3405C27.2079 43.3405 26.8899 43.383 26.7018 43.427V49.7994C26.89 49.8435 27.1939 49.8435 27.4686 49.8435C29.4649 49.8576 30.7669 48.7597 30.7669 46.4332C30.781 44.4101 29.5946 43.3405 27.7 43.3405Z" fill="white"/>
<path d="M27.7 43.3405C27.2079 43.3405 26.8899 43.383 26.7018 43.427V49.7994C26.89 49.8435 27.1939 49.8435 27.4686 49.8435C29.4649 49.8576 30.7669 48.7597 30.7669 46.4332C30.781 44.4101 29.5946 43.3405 27.7 43.3405Z" fill="url(#paint1_linear_1164_117)" fill-opacity="0.55"/>
<path d="M40.3384 10H18.6318C15.4607 10 12.8797 12.5806 12.8797 15.7473V36.9999H12.3179C11.038 36.9999 10 38.0361 10 39.316V53.3614C10 54.6412 11.0379 55.6772 12.3179 55.6772H12.8797V58.2527C12.8797 61.4229 15.4607 64 18.6318 64H48.2496C51.4187 64 54 61.4227 54 58.2527V23.6024L40.3384 10ZM16.0808 41.8507C16.76 41.736 17.7149 41.6496 19.0601 41.6496C20.4196 41.6496 21.3885 41.9088 22.0396 42.4296C22.6615 42.9204 23.0811 43.7305 23.0811 44.6839C23.0811 45.637 22.7631 46.4473 22.1845 46.9963C21.4319 47.7041 20.3189 48.0218 19.0169 48.0218C18.7272 48.0218 18.4675 48.0075 18.2643 47.9794V51.4622H16.0808V41.8507ZM48.2496 60.4803H18.6318C17.4039 60.4803 16.404 59.4812 16.404 58.2527V55.6772H44.0139C45.294 55.6772 46.3319 54.6412 46.3319 53.3614V39.316C46.3319 38.0361 45.294 36.9999 44.0139 36.9999H16.404V15.7473C16.404 14.5223 17.404 13.5232 18.6318 13.5232L39.0206 13.5019V21.0321C39.0206 23.2316 40.8067 25.0179 43.0096 25.0179L50.3924 24.9967L50.4754 58.2526C50.4754 59.4812 49.4773 60.4803 48.2496 60.4803ZM24.4891 51.418V41.8507C25.299 41.7219 26.3546 41.6496 27.4686 41.6496C29.3199 41.6496 30.5205 41.9814 31.4612 42.6891C32.4735 43.4411 33.1094 44.6397 33.1094 46.3606C33.1094 48.2247 32.4301 49.5116 31.4893 50.3058C30.4629 51.1583 28.9004 51.5626 26.9915 51.5626C25.8484 51.5626 25.0385 51.4903 24.4891 51.418ZM40.275 45.7536V47.5452H36.7743V51.4622H34.5616V41.7219H40.5205V43.5276H36.7743V45.7536H40.275Z" fill="white"/>
<path d="M40.3384 10H18.6318C15.4607 10 12.8797 12.5806 12.8797 15.7473V36.9999H12.3179C11.038 36.9999 10 38.0361 10 39.316V53.3614C10 54.6412 11.0379 55.6772 12.3179 55.6772H12.8797V58.2527C12.8797 61.4229 15.4607 64 18.6318 64H48.2496C51.4187 64 54 61.4227 54 58.2527V23.6024L40.3384 10ZM16.0808 41.8507C16.76 41.736 17.7149 41.6496 19.0601 41.6496C20.4196 41.6496 21.3885 41.9088 22.0396 42.4296C22.6615 42.9204 23.0811 43.7305 23.0811 44.6839C23.0811 45.637 22.7631 46.4473 22.1845 46.9963C21.4319 47.7041 20.3189 48.0218 19.0169 48.0218C18.7272 48.0218 18.4675 48.0075 18.2643 47.9794V51.4622H16.0808V41.8507ZM48.2496 60.4803H18.6318C17.4039 60.4803 16.404 59.4812 16.404 58.2527V55.6772H44.0139C45.294 55.6772 46.3319 54.6412 46.3319 53.3614V39.316C46.3319 38.0361 45.294 36.9999 44.0139 36.9999H16.404V15.7473C16.404 14.5223 17.404 13.5232 18.6318 13.5232L39.0206 13.5019V21.0321C39.0206 23.2316 40.8067 25.0179 43.0096 25.0179L50.3924 24.9967L50.4754 58.2526C50.4754 59.4812 49.4773 60.4803 48.2496 60.4803ZM24.4891 51.418V41.8507C25.299 41.7219 26.3546 41.6496 27.4686 41.6496C29.3199 41.6496 30.5205 41.9814 31.4612 42.6891C32.4735 43.4411 33.1094 44.6397 33.1094 46.3606C33.1094 48.2247 32.4301 49.5116 31.4893 50.3058C30.4629 51.1583 28.9004 51.5626 26.9915 51.5626C25.8484 51.5626 25.0385 51.4903 24.4891 51.418ZM40.275 45.7536V47.5452H36.7743V51.4622H34.5616V41.7219H40.5205V43.5276H36.7743V45.7536H40.275Z" fill="url(#paint2_linear_1164_117)" fill-opacity="0.55"/>
<path d="M16.054 55.3272H16.404H44.0139C45.1011 55.3272 45.9819 54.4475 45.9819 53.3614V39.316C45.9819 38.2297 45.1011 37.3499 44.0139 37.3499H16.404H16.054V36.9999V15.7473C16.054 14.3286 17.211 13.1734 18.6314 13.1732L16.054 55.3272ZM16.054 55.3272V55.6772V58.2527C16.054 59.6746 17.2107 60.8303 18.6318 60.8303H48.2496C49.6709 60.8303 50.8254 59.6742 50.8254 58.2526L50.8254 58.2517L50.7424 24.9958L50.7415 24.6457L50.3914 24.6467L43.0096 24.6679C43.0095 24.6679 43.0094 24.6679 43.0093 24.6679C40.9996 24.6677 39.3706 23.038 39.3706 21.0321V13.5019V13.1516L39.0202 13.1519L18.6318 13.1732L16.054 55.3272ZM27.4711 49.4935H27.4686C27.3153 49.4935 27.1728 49.4929 27.0518 49.4877V43.723C27.2123 43.7043 27.4252 43.6905 27.7 43.6905C28.5831 43.6905 29.2554 43.939 29.7044 44.3784C30.1517 44.8161 30.4234 45.4883 30.4169 46.4308V46.4332C30.4169 47.5322 30.1105 48.2867 29.6214 48.7661C29.131 49.2466 28.4067 49.5002 27.4711 49.4935ZM30.7669 46.4332C30.7669 48.7597 29.4649 49.8576 27.4686 49.8435L30.7669 46.4332ZM12.8797 37.3499H13.2297V36.9999V15.7473C13.2297 12.7741 15.6538 10.35 18.6318 10.35H40.1939L53.65 23.7478V58.2527C53.65 61.2292 51.2257 63.65 48.2496 63.65H18.6318C15.6536 63.65 13.2297 61.2292 13.2297 58.2527V55.6772V55.3272H12.8797H12.3179C11.2308 55.3272 10.35 54.4475 10.35 53.3614V39.316C10.35 38.2297 11.2309 37.3499 12.3179 37.3499H12.8797ZM16.0225 41.5056L15.7308 41.5548V41.8507V51.4622V51.8122H16.0808H18.2643H18.6143V51.4622V48.362C18.7416 48.3686 18.8768 48.3718 19.0169 48.3718C20.3679 48.3718 21.5825 48.043 22.4243 47.2512L22.4254 47.2502C23.086 46.6235 23.4311 45.7146 23.4311 44.6839C23.4311 43.6272 22.9654 42.7149 22.2574 42.1557C21.517 41.5638 20.4545 41.2996 19.0601 41.2996C17.7006 41.2996 16.7256 41.3869 16.0225 41.5056ZM24.1391 51.418V51.725L24.4435 51.7651C25.008 51.8393 25.8331 51.9126 26.9915 51.9126C28.9386 51.9126 30.5968 51.502 31.7129 50.575L31.7151 50.5732C32.7426 49.7058 33.4594 48.3168 33.4594 46.3606C33.4594 44.5441 32.7825 43.235 31.6706 42.4087C30.6466 41.6387 29.3606 41.2996 27.4686 41.2996C26.3418 41.2996 25.267 41.3726 24.4342 41.505L24.1391 41.552V41.8507V51.418ZM40.625 45.7536V45.4036H40.275H37.1243V43.8776H40.5205H40.8705V43.5276V41.7219V41.3719H40.5205H34.5616H34.2116V41.7219V51.4622V51.8122H34.5616H36.7743H37.1243V51.4622V47.8952H40.275H40.625V47.5452V45.7536ZM19.1759 43.6604C19.6732 43.6604 20.0136 43.7817 20.2239 43.9581C20.4257 44.1273 20.5475 44.3804 20.5475 44.742C20.5475 45.1493 20.4037 45.4431 20.1655 45.6415C19.9191 45.8466 19.5336 45.9807 19.0028 45.9807C18.848 45.9807 18.721 45.9772 18.6143 45.9696V43.6897C18.7555 43.673 18.9423 43.6604 19.1759 43.6604Z" stroke="#F3F3F3" stroke-width="0.7"/>
</g>
<defs>
<filter id="filter0_d_1164_117" x="0" y="0" width="64" height="74" filterUnits="userSpaceOnUse" color-interpolation-filters="sRGB">
<feFlood flood-opacity="0" result="BackgroundImageFix"/>
<feColorMatrix in="SourceAlpha" type="matrix" values="0 0 0 0 0 0 0 0 0 0 0 0 0 0 0 0 0 0 127 0" result="hardAlpha"/>
<feOffset/>
<feGaussianBlur stdDeviation="5"/>
<feComposite in2="hardAlpha" operator="out"/>
<feColorMatrix type="matrix" values="0 0 0 0 0.0916667 0 0 0 0 0.0916667 0 0 0 0 0.0916667 0 0 0 0.8 0"/>
<feBlend mode="normal" in2="BackgroundImageFix" result="effect1_dropShadow_1164_117"/>
<feBlend mode="normal" in="SourceGraphic" in2="effect1_dropShadow_1164_117" result="shape"/>
</filter>
<linearGradient id="paint0_linear_1164_117" x1="32" y1="10" x2="32" y2="64" gradientUnits="userSpaceOnUse">
<stop offset="0.140625"/>
<stop offset="0.453125" stop-color="white"/>
<stop offset="0.552083" stop-color="white"/>
<stop offset="0.887495" stop-color="#070707"/>
</linearGradient>
<linearGradient id="paint1_linear_1164_117" x1="32" y1="10" x2="32" y2="64" gradientUnits="userSpaceOnUse">
<stop offset="0.140625"/>
<stop offset="0.453125" stop-color="white"/>
<stop offset="0.552083" stop-color="white"/>
<stop offset="0.887495" stop-color="#070707"/>
</linearGradient>
<linearGradient id="paint2_linear_1164_117" x1="32" y1="10" x2="32" y2="64" gradientUnits="userSpaceOnUse">
<stop offset="0.140625"/>
<stop offset="0.453125" stop-color="white"/>
<stop offset="0.552083" stop-color="white"/>
<stop offset="0.887495" stop-color="#070707"/>
</linearGradient>
</defs>
</svg>
