<svg width="39" height="39" viewBox="0 0 39 39" fill="none" xmlns="http://www.w3.org/2000/svg">
<g filter="url(#filter0_dddi_1294_336)">
<path fill-rule="evenodd" clip-rule="evenodd" d="M9.94618 5.79718C10.2196 5.52418 10.5479 5.3124 10.9093 5.17588C11.2708 5.03936 11.6571 4.98122 12.0427 5.0053C12.4284 5.02938 12.8045 5.13515 13.1461 5.31557C13.4878 5.496 13.7872 5.74698 14.0245 6.05188L16.8293 9.65517C17.3434 10.3161 17.5247 11.1771 17.3215 11.9896L16.4668 15.4117C16.4226 15.5889 16.425 15.7746 16.4737 15.9506C16.5225 16.1267 16.6159 16.2871 16.7449 16.4164L20.5842 20.2557C20.7136 20.385 20.8743 20.4785 21.0507 20.5273C21.227 20.576 21.413 20.5783 21.5905 20.5338L25.0109 19.6791C25.4119 19.5788 25.8304 19.571 26.2349 19.6563C26.6393 19.7416 27.0191 19.9177 27.3454 20.1713L30.9487 22.9745C32.2441 23.9824 32.3628 25.8965 31.2034 27.0544L29.5877 28.6701C28.4314 29.8264 26.7032 30.3342 25.0922 29.767C20.9689 28.3162 17.2251 25.9557 14.1386 22.8605C11.0436 19.7744 8.68301 16.0312 7.232 11.9084C6.66635 10.2989 7.17418 8.56918 8.33048 7.41288L9.94618 5.79718Z" fill="white"/>
<path fill-rule="evenodd" clip-rule="evenodd" d="M9.94618 5.79718C10.2196 5.52418 10.5479 5.3124 10.9093 5.17588C11.2708 5.03936 11.6571 4.98122 12.0427 5.0053C12.4284 5.02938 12.8045 5.13515 13.1461 5.31557C13.4878 5.496 13.7872 5.74698 14.0245 6.05188L16.8293 9.65517C17.3434 10.3161 17.5247 11.1771 17.3215 11.9896L16.4668 15.4117C16.4226 15.5889 16.425 15.7746 16.4737 15.9506C16.5225 16.1267 16.6159 16.2871 16.7449 16.4164L20.5842 20.2557C20.7136 20.385 20.8743 20.4785 21.0507 20.5273C21.227 20.576 21.413 20.5783 21.5905 20.5338L25.0109 19.6791C25.4119 19.5788 25.8304 19.571 26.2349 19.6563C26.6393 19.7416 27.0191 19.9177 27.3454 20.1713L30.9487 22.9745C32.2441 23.9824 32.3628 25.8965 31.2034 27.0544L29.5877 28.6701C28.4314 29.8264 26.7032 30.3342 25.0922 29.767C20.9689 28.3162 17.2251 25.9557 14.1386 22.8605C11.0436 19.7744 8.68301 16.0312 7.232 11.9084C6.66635 10.2989 7.17418 8.56918 8.33048 7.41288L9.94618 5.79718Z" fill="url(#paint0_linear_1294_336)" fill-opacity="0.55"/>
</g>
<defs>
<filter id="filter0_dddi_1294_336" x="0" y="0" width="39" height="39" filterUnits="userSpaceOnUse" color-interpolation-filters="sRGB">
<feFlood flood-opacity="0" result="BackgroundImageFix"/>
<feColorMatrix in="SourceAlpha" type="matrix" values="0 0 0 0 0 0 0 0 0 0 0 0 0 0 0 0 0 0 127 0" result="hardAlpha"/>
<feOffset dy="2"/>
<feGaussianBlur stdDeviation="3.5"/>
<feComposite in2="hardAlpha" operator="out"/>
<feColorMatrix type="matrix" values="0 0 0 0 0.109804 0 0 0 0 0.109804 0 0 0 0 0.109804 0 0 0 0.6 0"/>
<feBlend mode="normal" in2="BackgroundImageFix" result="effect1_dropShadow_1294_336"/>
<feColorMatrix in="SourceAlpha" type="matrix" values="0 0 0 0 0 0 0 0 0 0 0 0 0 0 0 0 0 0 127 0" result="hardAlpha"/>
<feOffset/>
<feGaussianBlur stdDeviation="1"/>
<feComposite in2="hardAlpha" operator="out"/>
<feColorMatrix type="matrix" values="0 0 0 0 0.109804 0 0 0 0 0.109804 0 0 0 0 0.109804 0 0 0 0.9 0"/>
<feBlend mode="normal" in2="effect1_dropShadow_1294_336" result="effect2_dropShadow_1294_336"/>
<feColorMatrix in="SourceAlpha" type="matrix" values="0 0 0 0 0 0 0 0 0 0 0 0 0 0 0 0 0 0 127 0" result="hardAlpha"/>
<feOffset dy="1"/>
<feGaussianBlur stdDeviation="2"/>
<feComposite in2="hardAlpha" operator="out"/>
<feColorMatrix type="matrix" values="0 0 0 0 0.108333 0 0 0 0 0.108333 0 0 0 0 0.108333 0 0 0 1 0"/>
<feBlend mode="normal" in2="effect2_dropShadow_1294_336" result="effect3_dropShadow_1294_336"/>
<feBlend mode="normal" in="SourceGraphic" in2="effect3_dropShadow_1294_336" result="shape"/>
<feColorMatrix in="SourceAlpha" type="matrix" values="0 0 0 0 0 0 0 0 0 0 0 0 0 0 0 0 0 0 127 0" result="hardAlpha"/>
<feOffset dx="1" dy="1"/>
<feGaussianBlur stdDeviation="0.5"/>
<feComposite in2="hardAlpha" operator="arithmetic" k2="-1" k3="1"/>
<feColorMatrix type="matrix" values="0 0 0 0 1 0 0 0 0 1 0 0 0 0 1 0 0 0 0.4 0"/>
<feBlend mode="normal" in2="shape" result="effect4_innerShadow_1294_336"/>
</filter>
<linearGradient id="paint0_linear_1294_336" x1="19.501" y1="5" x2="19.501" y2="30" gradientUnits="userSpaceOnUse">
<stop offset="0.18826"/>
<stop offset="0.512812" stop-color="white"/>
<stop offset="0.887495" stop-color="#070707"/>
</linearGradient>
</defs>
</svg>
