<svg width="52" height="52" viewBox="0 0 52 52" fill="none" xmlns="http://www.w3.org/2000/svg">
<path d="M11.7713 25.1101L11.7697 25.1107C11.3172 25.2876 10.9571 25.4912 10.6994 25.7175C10.4437 25.9421 10.2616 26.2143 10.2344 26.5247C10.2062 26.8463 10.3509 27.1267 10.5793 27.3417C10.8027 27.552 11.1193 27.7154 11.4967 27.8351L11.4983 27.8356L17.9159 29.8376L18.07 29.8857L18.2066 29.7997L33.0938 20.4267L33.0939 20.4268L33.1011 20.422C33.1572 20.3847 33.2117 20.3541 33.2636 20.3293L21.4342 31.0161L21.3295 31.1107L21.3197 31.2515L20.8582 37.8663L20.8321 38.2407H21.2073C21.5996 38.2407 21.9023 38.1538 22.1605 38.0037C22.4007 37.8641 22.5883 37.6765 22.7528 37.5118L22.7634 37.5013L25.6834 34.6881L31.9457 39.3034L31.9625 39.3158L31.9808 39.3262C32.6144 39.6852 33.2492 39.8251 33.7979 39.5767C34.3451 39.3289 34.6758 38.7535 34.8437 37.9968L34.8444 37.9937L39.1127 17.8848L39.3585 16.7268L39.1892 16.8966C39.1506 16.41 38.9814 16.0099 38.6888 15.7247C38.2117 15.2597 37.5117 15.2017 36.8466 15.442L36.8466 15.4419L36.8396 15.4446L11.7713 25.1101ZM51.65 26C51.65 40.1695 40.1695 51.65 26 51.65C11.8305 51.65 0.35 40.1695 0.35 26C0.35 11.8305 11.8305 0.35 26 0.35C40.1695 0.35 51.65 11.8305 51.65 26Z" fill="white"/>
<path d="M11.7713 25.1101L11.7697 25.1107C11.3172 25.2876 10.9571 25.4912 10.6994 25.7175C10.4437 25.9421 10.2616 26.2143 10.2344 26.5247C10.2062 26.8463 10.3509 27.1267 10.5793 27.3417C10.8027 27.552 11.1193 27.7154 11.4967 27.8351L11.4983 27.8356L17.9159 29.8376L18.07 29.8857L18.2066 29.7997L33.0938 20.4267L33.0939 20.4268L33.1011 20.422C33.1572 20.3847 33.2117 20.3541 33.2636 20.3293L21.4342 31.0161L21.3295 31.1107L21.3197 31.2515L20.8582 37.8663L20.8321 38.2407H21.2073C21.5996 38.2407 21.9023 38.1538 22.1605 38.0037C22.4007 37.8641 22.5883 37.6765 22.7528 37.5118L22.7634 37.5013L25.6834 34.6881L31.9457 39.3034L31.9625 39.3158L31.9808 39.3262C32.6144 39.6852 33.2492 39.8251 33.7979 39.5767C34.3451 39.3289 34.6758 38.7535 34.8437 37.9968L34.8444 37.9937L39.1127 17.8848L39.3585 16.7268L39.1892 16.8966C39.1506 16.41 38.9814 16.0099 38.6888 15.7247C38.2117 15.2597 37.5117 15.2017 36.8466 15.442L36.8466 15.4419L36.8396 15.4446L11.7713 25.1101ZM51.65 26C51.65 40.1695 40.1695 51.65 26 51.65C11.8305 51.65 0.35 40.1695 0.35 26C0.35 11.8305 11.8305 0.35 26 0.35C40.1695 0.35 51.65 11.8305 51.65 26Z" fill="url(#paint0_linear_1294_263)" fill-opacity="0.55"/>
<path d="M11.7713 25.1101L11.7697 25.1107C11.3172 25.2876 10.9571 25.4912 10.6994 25.7175C10.4437 25.9421 10.2616 26.2143 10.2344 26.5247C10.2062 26.8463 10.3509 27.1267 10.5793 27.3417C10.8027 27.552 11.1193 27.7154 11.4967 27.8351L11.4983 27.8356L17.9159 29.8376L18.07 29.8857L18.2066 29.7997L33.0938 20.4267L33.0939 20.4268L33.1011 20.422C33.1572 20.3847 33.2117 20.3541 33.2636 20.3293L21.4342 31.0161L21.3295 31.1107L21.3197 31.2515L20.8582 37.8663L20.8321 38.2407H21.2073C21.5996 38.2407 21.9023 38.1538 22.1605 38.0037C22.4007 37.8641 22.5883 37.6765 22.7528 37.5118L22.7634 37.5013L25.6834 34.6881L31.9457 39.3034L31.9625 39.3158L31.9808 39.3262C32.6144 39.6852 33.2492 39.8251 33.7979 39.5767C34.3451 39.3289 34.6758 38.7535 34.8437 37.9968L34.8444 37.9937L39.1127 17.8848L39.3585 16.7268L39.1892 16.8966C39.1506 16.41 38.9814 16.0099 38.6888 15.7247C38.2117 15.2597 37.5117 15.2017 36.8466 15.442L36.8466 15.4419L36.8396 15.4446L11.7713 25.1101ZM51.65 26C51.65 40.1695 40.1695 51.65 26 51.65C11.8305 51.65 0.35 40.1695 0.35 26C0.35 11.8305 11.8305 0.35 26 0.35C40.1695 0.35 51.65 11.8305 51.65 26Z" stroke="#F3F3F3" stroke-width="0.7"/>
<defs>
<linearGradient id="paint0_linear_1294_263" x1="26" y1="0" x2="26" y2="52" gradientUnits="userSpaceOnUse">
<stop offset="0.18826"/>
<stop offset="0.512812" stop-color="white"/>
<stop offset="0.887495" stop-color="#070707"/>
</linearGradient>
</defs>
</svg>
