<svg width="52" height="52" viewBox="0 0 52 52" fill="none" xmlns="http://www.w3.org/2000/svg">
<path d="M11.9658 30.6011C11.9653 31.3271 12.1079 32.0461 12.3854 32.7169C12.6629 33.3878 13.0699 33.9974 13.5831 34.5109C14.0962 35.0245 14.7056 35.4318 15.3763 35.7098C16.047 35.9877 16.7659 36.1308 17.4919 36.1308H34.5082C35.2342 36.1308 35.953 35.9877 36.6237 35.7098C37.2944 35.4318 37.9038 35.0245 38.417 34.5109C38.9301 33.9974 39.3371 33.3878 39.6146 32.7169C39.8921 32.0461 40.0347 31.3271 40.0342 30.6011L39.6842 21.3987C39.6847 20.7187 39.5511 20.0452 39.2912 19.4168C39.0313 18.7885 38.6501 18.2174 38.1694 17.7364C37.6887 17.2554 37.118 16.8739 36.4897 16.6135C35.8615 16.3532 35.1882 16.2192 34.5082 16.2192H17.4919C16.8118 16.2192 16.1385 16.3532 15.5103 16.6135C14.8821 16.8739 14.3113 17.2554 13.8306 17.7364C13.3499 18.2174 12.9687 18.7885 12.7088 19.4168C12.4489 20.0452 12.3153 20.7187 12.3158 21.3987H11.9658V21.3989V30.6011ZM11.9658 30.6011L12.3158 30.6013H11.9658V30.6011ZM22.7442 22.415L28.9096 26.0095L22.7442 29.5865V22.415ZM11.7496 4.6728C15.9678 1.85435 20.9269 0.35 26 0.35C32.8028 0.35 39.327 3.0524 44.1373 7.86271C48.9476 12.673 51.65 19.1972 51.65 26C51.65 31.0731 50.1457 36.0322 47.3272 40.2504C44.5087 44.4685 40.5028 47.7561 35.8158 49.6975C31.1289 51.6389 25.9716 52.1468 20.9959 51.1571C16.0203 50.1674 11.4499 47.7245 7.86272 44.1373C4.27551 40.5501 1.83258 35.9797 0.842869 31.0041C-0.146841 26.0284 0.361114 20.8711 2.3025 16.1842C4.24389 11.4972 7.53151 7.49126 11.7496 4.6728Z" fill="white"/>
<path d="M11.9658 30.6011C11.9653 31.3271 12.1079 32.0461 12.3854 32.7169C12.6629 33.3878 13.0699 33.9974 13.5831 34.5109C14.0962 35.0245 14.7056 35.4318 15.3763 35.7098C16.047 35.9877 16.7659 36.1308 17.4919 36.1308H34.5082C35.2342 36.1308 35.953 35.9877 36.6237 35.7098C37.2944 35.4318 37.9038 35.0245 38.417 34.5109C38.9301 33.9974 39.3371 33.3878 39.6146 32.7169C39.8921 32.0461 40.0347 31.3271 40.0342 30.6011L39.6842 21.3987C39.6847 20.7187 39.5511 20.0452 39.2912 19.4168C39.0313 18.7885 38.6501 18.2174 38.1694 17.7364C37.6887 17.2554 37.118 16.8739 36.4897 16.6135C35.8615 16.3532 35.1882 16.2192 34.5082 16.2192H17.4919C16.8118 16.2192 16.1385 16.3532 15.5103 16.6135C14.8821 16.8739 14.3113 17.2554 13.8306 17.7364C13.3499 18.2174 12.9687 18.7885 12.7088 19.4168C12.4489 20.0452 12.3153 20.7187 12.3158 21.3987H11.9658V21.3989V30.6011ZM11.9658 30.6011L12.3158 30.6013H11.9658V30.6011ZM22.7442 22.415L28.9096 26.0095L22.7442 29.5865V22.415ZM11.7496 4.6728C15.9678 1.85435 20.9269 0.35 26 0.35C32.8028 0.35 39.327 3.0524 44.1373 7.86271C48.9476 12.673 51.65 19.1972 51.65 26C51.65 31.0731 50.1457 36.0322 47.3272 40.2504C44.5087 44.4685 40.5028 47.7561 35.8158 49.6975C31.1289 51.6389 25.9716 52.1468 20.9959 51.1571C16.0203 50.1674 11.4499 47.7245 7.86272 44.1373C4.27551 40.5501 1.83258 35.9797 0.842869 31.0041C-0.146841 26.0284 0.361114 20.8711 2.3025 16.1842C4.24389 11.4972 7.53151 7.49126 11.7496 4.6728Z" fill="url(#paint0_linear_1294_265)" fill-opacity="0.55"/>
<path d="M11.9658 30.6011C11.9653 31.3271 12.1079 32.0461 12.3854 32.7169C12.6629 33.3878 13.0699 33.9974 13.5831 34.5109C14.0962 35.0245 14.7056 35.4318 15.3763 35.7098C16.047 35.9877 16.7659 36.1308 17.4919 36.1308H34.5082C35.2342 36.1308 35.953 35.9877 36.6237 35.7098C37.2944 35.4318 37.9038 35.0245 38.417 34.5109C38.9301 33.9974 39.3371 33.3878 39.6146 32.7169C39.8921 32.0461 40.0347 31.3271 40.0342 30.6011L39.6842 21.3987C39.6847 20.7187 39.5511 20.0452 39.2912 19.4168C39.0313 18.7885 38.6501 18.2174 38.1694 17.7364C37.6887 17.2554 37.118 16.8739 36.4897 16.6135C35.8615 16.3532 35.1882 16.2192 34.5082 16.2192H17.4919C16.8118 16.2192 16.1385 16.3532 15.5103 16.6135C14.8821 16.8739 14.3113 17.2554 13.8306 17.7364C13.3499 18.2174 12.9687 18.7885 12.7088 19.4168C12.4489 20.0452 12.3153 20.7187 12.3158 21.3987H11.9658V21.3989V30.6011ZM11.9658 30.6011L12.3158 30.6013H11.9658V30.6011ZM22.7442 22.415L28.9096 26.0095L22.7442 29.5865V22.415ZM11.7496 4.6728C15.9678 1.85435 20.9269 0.35 26 0.35C32.8028 0.35 39.327 3.0524 44.1373 7.86271C48.9476 12.673 51.65 19.1972 51.65 26C51.65 31.0731 50.1457 36.0322 47.3272 40.2504C44.5087 44.4685 40.5028 47.7561 35.8158 49.6975C31.1289 51.6389 25.9716 52.1468 20.9959 51.1571C16.0203 50.1674 11.4499 47.7245 7.86272 44.1373C4.27551 40.5501 1.83258 35.9797 0.842869 31.0041C-0.146841 26.0284 0.361114 20.8711 2.3025 16.1842C4.24389 11.4972 7.53151 7.49126 11.7496 4.6728Z" stroke="#F3F3F3" stroke-width="0.7"/>
<defs>
<linearGradient id="paint0_linear_1294_265" x1="26" y1="0" x2="26" y2="52" gradientUnits="userSpaceOnUse">
<stop offset="0.18826"/>
<stop offset="0.512812" stop-color="white"/>
<stop offset="0.887495" stop-color="#070707"/>
</linearGradient>
</defs>
</svg>
