<svg width="33" height="39" fill="none" xmlns="http://www.w3.org/2000/svg"><g filter="url(#a)"><path d="M16.375 30s9.375-8.884 9.375-15.625a9.375 9.375 0 1 0-18.75 0C7 21.115 16.375 30 16.375 30Zm0-10.938a4.688 4.688 0 1 1 0-9.375 4.688 4.688 0 0 1 0 9.376Z" fill="#fff"/><path d="M16.375 30s9.375-8.884 9.375-15.625a9.375 9.375 0 1 0-18.75 0C7 21.115 16.375 30 16.375 30Zm0-10.938a4.688 4.688 0 1 1 0-9.375 4.688 4.688 0 0 1 0 9.376Z" fill="url(#b)" fill-opacity=".55"/></g><defs><linearGradient id="b" x1="16.375" y1="5" x2="16.375" y2="30" gradientUnits="userSpaceOnUse"><stop offset=".188"/><stop offset=".513" stop-color="#fff"/><stop offset=".887" stop-color="#070707"/></linearGradient><filter id="a" x="0" y="0" width="32.75" height="39" filterUnits="userSpaceOnUse" color-interpolation-filters="sRGB"><feFlood flood-opacity="0" result="BackgroundImageFix"/><feColorMatrix in="SourceAlpha" values="0 0 0 0 0 0 0 0 0 0 0 0 0 0 0 0 0 0 127 0" result="hardAlpha"/><feOffset dy="2"/><feGaussianBlur stdDeviation="3.5"/><feComposite in2="hardAlpha" operator="out"/><feColorMatrix values="0 0 0 0 0.109804 0 0 0 0 0.109804 0 0 0 0 0.109804 0 0 0 0.6 0"/><feBlend in2="BackgroundImageFix" result="effect1_dropShadow_1294_331"/><feColorMatrix in="SourceAlpha" values="0 0 0 0 0 0 0 0 0 0 0 0 0 0 0 0 0 0 127 0" result="hardAlpha"/><feOffset/><feGaussianBlur stdDeviation="1"/><feComposite in2="hardAlpha" operator="out"/><feColorMatrix values="0 0 0 0 0.109804 0 0 0 0 0.109804 0 0 0 0 0.109804 0 0 0 0.9 0"/><feBlend in2="effect1_dropShadow_1294_331" result="effect2_dropShadow_1294_331"/><feColorMatrix in="SourceAlpha" values="0 0 0 0 0 0 0 0 0 0 0 0 0 0 0 0 0 0 127 0" result="hardAlpha"/><feOffset dy="1"/><feGaussianBlur stdDeviation="2"/><feComposite in2="hardAlpha" operator="out"/><feColorMatrix values="0 0 0 0 0.108333 0 0 0 0 0.108333 0 0 0 0 0.108333 0 0 0 1 0"/><feBlend in2="effect2_dropShadow_1294_331" result="effect3_dropShadow_1294_331"/><feBlend in="SourceGraphic" in2="effect3_dropShadow_1294_331" result="shape"/><feColorMatrix in="SourceAlpha" values="0 0 0 0 0 0 0 0 0 0 0 0 0 0 0 0 0 0 127 0" result="hardAlpha"/><feOffset dx="1" dy="1"/><feGaussianBlur stdDeviation=".5"/><feComposite in2="hardAlpha" operator="arithmetic" k2="-1" k3="1"/><feColorMatrix values="0 0 0 0 1 0 0 0 0 1 0 0 0 0 1 0 0 0 0.4 0"/><feBlend in2="shape" result="effect4_innerShadow_1294_331"/></filter></defs></svg>