<svg width="38" height="39" fill="none" xmlns="http://www.w3.org/2000/svg"><g filter="url(#a)"><path d="M15.928 29.107V22.85c0-.438.446-.884.893-.884h3.571c.446 0 .893.446.893.893v6.25a.893.893 0 0 0 .893.892h7.142a.893.893 0 0 0 .893-.893v-12.5a.894.894 0 0 0-.26-.632l-2.419-2.416V7.68a.893.893 0 0 0-.892-.893h-1.786a.893.893 0 0 0-.893.893v2.309l-4.725-4.727a.892.892 0 0 0-1.264 0L7.261 15.976a.893.893 0 0 0-.261.632v12.5a.893.893 0 0 0 .893.892h7.142a.893.893 0 0 0 .893-.893Z" fill="#fff"/><path d="M15.928 29.107V22.85c0-.438.446-.884.893-.884h3.571c.446 0 .893.446.893.893v6.25a.893.893 0 0 0 .893.892h7.142a.893.893 0 0 0 .893-.893v-12.5a.894.894 0 0 0-.26-.632l-2.419-2.416V7.68a.893.893 0 0 0-.892-.893h-1.786a.893.893 0 0 0-.893.893v2.309l-4.725-4.727a.892.892 0 0 0-1.264 0L7.261 15.976a.893.893 0 0 0-.261.632v12.5a.893.893 0 0 0 .893.892h7.142a.893.893 0 0 0 .893-.893Z" fill="url(#b)" fill-opacity=".55"/></g><defs><linearGradient id="b" x1="18.606" y1="5" x2="18.606" y2="30" gradientUnits="userSpaceOnUse"><stop offset=".188"/><stop offset=".513" stop-color="#fff"/><stop offset=".887" stop-color="#070707"/></linearGradient><filter id="a" x="0" y="0" width="37.211" height="39" filterUnits="userSpaceOnUse" color-interpolation-filters="sRGB"><feFlood flood-opacity="0" result="BackgroundImageFix"/><feColorMatrix in="SourceAlpha" values="0 0 0 0 0 0 0 0 0 0 0 0 0 0 0 0 0 0 127 0" result="hardAlpha"/><feOffset dy="2"/><feGaussianBlur stdDeviation="3.5"/><feComposite in2="hardAlpha" operator="out"/><feColorMatrix values="0 0 0 0 0.109804 0 0 0 0 0.109804 0 0 0 0 0.109804 0 0 0 0.6 0"/><feBlend in2="BackgroundImageFix" result="effect1_dropShadow_1294_346"/><feColorMatrix in="SourceAlpha" values="0 0 0 0 0 0 0 0 0 0 0 0 0 0 0 0 0 0 127 0" result="hardAlpha"/><feOffset/><feGaussianBlur stdDeviation="1"/><feComposite in2="hardAlpha" operator="out"/><feColorMatrix values="0 0 0 0 0.109804 0 0 0 0 0.109804 0 0 0 0 0.109804 0 0 0 0.9 0"/><feBlend in2="effect1_dropShadow_1294_346" result="effect2_dropShadow_1294_346"/><feColorMatrix in="SourceAlpha" values="0 0 0 0 0 0 0 0 0 0 0 0 0 0 0 0 0 0 127 0" result="hardAlpha"/><feOffset dy="1"/><feGaussianBlur stdDeviation="2"/><feComposite in2="hardAlpha" operator="out"/><feColorMatrix values="0 0 0 0 0.108333 0 0 0 0 0.108333 0 0 0 0 0.108333 0 0 0 1 0"/><feBlend in2="effect2_dropShadow_1294_346" result="effect3_dropShadow_1294_346"/><feBlend in="SourceGraphic" in2="effect3_dropShadow_1294_346" result="shape"/><feColorMatrix in="SourceAlpha" values="0 0 0 0 0 0 0 0 0 0 0 0 0 0 0 0 0 0 127 0" result="hardAlpha"/><feOffset dx="1" dy="1"/><feGaussianBlur stdDeviation=".5"/><feComposite in2="hardAlpha" operator="arithmetic" k2="-1" k3="1"/><feColorMatrix values="0 0 0 0 1 0 0 0 0 1 0 0 0 0 1 0 0 0 0.4 0"/><feBlend in2="shape" result="effect4_innerShadow_1294_346"/></filter></defs></svg>