<svg width="53" height="52" fill="none" xmlns="http://www.w3.org/2000/svg"><path d="M14.614 18.32a4.141 4.141 0 0 1 4.137-4.136h15.498a4.142 4.142 0 0 1 4.137 4.137v15.498a4.142 4.142 0 0 1-4.137 4.137H18.751a4.142 4.142 0 0 1-4.137-4.137V18.321Zm3.48 7.75c0 4.636 3.77 8.406 8.406 8.406 4.635 0 8.406-3.77 8.406-8.406 0-4.635-3.77-8.406-8.406-8.406-4.635 0-8.406 3.771-8.406 8.406Zm14.465-8.296a2.258 2.258 0 0 0 2.256 2.256 2.258 2.258 0 0 0 2.256-2.256 2.258 2.258 0 0 0-2.256-2.256 2.258 2.258 0 0 0-2.256 2.256ZM22.198 26.07a4.307 4.307 0 0 1 4.302-4.301 4.307 4.307 0 0 1 4.302 4.3 4.307 4.307 0 0 1-4.302 4.303 4.308 4.308 0 0 1-4.302-4.302ZM.85 26C.85 11.835 12.335.35 26.5.35 40.666.35 52.15 11.835 52.15 26c0 14.166-11.484 25.65-25.65 25.65C12.335 51.65.85 40.166.85 26Zm33.4 16.06c4.544 0 8.24-3.696 8.24-8.24v-15.5c0-4.543-3.696-8.24-8.24-8.24h-15.5c-4.543 0-8.24 3.697-8.24 8.24v15.5c0 4.544 3.697 8.24 8.24 8.24h15.5Z" fill="#fff"/><path d="M14.614 18.32a4.141 4.141 0 0 1 4.137-4.136h15.498a4.142 4.142 0 0 1 4.137 4.137v15.498a4.142 4.142 0 0 1-4.137 4.137H18.751a4.142 4.142 0 0 1-4.137-4.137V18.321Zm3.48 7.75c0 4.636 3.77 8.406 8.406 8.406 4.635 0 8.406-3.77 8.406-8.406 0-4.635-3.77-8.406-8.406-8.406-4.635 0-8.406 3.771-8.406 8.406Zm14.465-8.296a2.258 2.258 0 0 0 2.256 2.256 2.258 2.258 0 0 0 2.256-2.256 2.258 2.258 0 0 0-2.256-2.256 2.258 2.258 0 0 0-2.256 2.256ZM22.198 26.07a4.307 4.307 0 0 1 4.302-4.301 4.307 4.307 0 0 1 4.302 4.3 4.307 4.307 0 0 1-4.302 4.303 4.308 4.308 0 0 1-4.302-4.302ZM.85 26C.85 11.835 12.335.35 26.5.35 40.666.35 52.15 11.835 52.15 26c0 14.166-11.484 25.65-25.65 25.65C12.335 51.65.85 40.166.85 26Zm33.4 16.06c4.544 0 8.24-3.696 8.24-8.24v-15.5c0-4.543-3.696-8.24-8.24-8.24h-15.5c-4.543 0-8.24 3.697-8.24 8.24v15.5c0 4.544 3.697 8.24 8.24 8.24h15.5Z" fill="url(#a)" fill-opacity=".55"/><path d="M14.614 18.32a4.141 4.141 0 0 1 4.137-4.136h15.498a4.142 4.142 0 0 1 4.137 4.137v15.498a4.142 4.142 0 0 1-4.137 4.137H18.751a4.142 4.142 0 0 1-4.137-4.137V18.321Zm3.48 7.75c0 4.636 3.77 8.406 8.406 8.406 4.635 0 8.406-3.77 8.406-8.406 0-4.635-3.77-8.406-8.406-8.406-4.635 0-8.406 3.771-8.406 8.406Zm14.465-8.296a2.258 2.258 0 0 0 2.256 2.256 2.258 2.258 0 0 0 2.256-2.256 2.258 2.258 0 0 0-2.256-2.256 2.258 2.258 0 0 0-2.256 2.256ZM22.198 26.07a4.307 4.307 0 0 1 4.302-4.301 4.307 4.307 0 0 1 4.302 4.3 4.307 4.307 0 0 1-4.302 4.303 4.308 4.308 0 0 1-4.302-4.302ZM.85 26C.85 11.835 12.335.35 26.5.35 40.666.35 52.15 11.835 52.15 26c0 14.166-11.484 25.65-25.65 25.65C12.335 51.65.85 40.166.85 26Zm33.4 16.06c4.544 0 8.24-3.696 8.24-8.24v-15.5c0-4.543-3.696-8.24-8.24-8.24h-15.5c-4.543 0-8.24 3.697-8.24 8.24v15.5c0 4.544 3.697 8.24 8.24 8.24h15.5Z" stroke="#F3F3F3" stroke-width=".7"/><defs><linearGradient id="a" x1="26.5" y1="0" x2="26.5" y2="52" gradientUnits="userSpaceOnUse"><stop offset=".188"/><stop offset=".513" stop-color="#fff"/><stop offset=".887" stop-color="#070707"/></linearGradient></defs></svg>