<svg width="64" height="74" fill="none" xmlns="http://www.w3.org/2000/svg"><g filter="url(#a)"><path d="M20.898 44.742c0-.897-.623-1.432-1.722-1.432-.449 0-.753.045-.912.087v2.877c.189.043.42.057.739.057 1.171 0 1.895-.592 1.895-1.589Z" fill="#fff"/><path d="M20.898 44.742c0-.897-.623-1.432-1.722-1.432-.449 0-.753.045-.912.087v2.877c.189.043.42.057.739.057 1.171 0 1.895-.592 1.895-1.589Z" fill="url(#b)" fill-opacity=".55"/><path d="M27.7 43.34c-.492 0-.81.043-.998.087v6.372c.188.044.492.044.767.044 1.996.015 3.298-1.083 3.298-3.41.014-2.023-1.172-3.093-3.067-3.093Z" fill="#fff"/><path d="M27.7 43.34c-.492 0-.81.043-.998.087v6.372c.188.044.492.044.767.044 1.996.015 3.298-1.083 3.298-3.41.014-2.023-1.172-3.093-3.067-3.093Z" fill="url(#c)" fill-opacity=".55"/><path d="M40.338 10H18.632c-3.171 0-5.752 2.58-5.752 5.747V37h-.562A2.317 2.317 0 0 0 10 39.316v14.045a2.316 2.316 0 0 0 2.318 2.316h.562v2.576A5.756 5.756 0 0 0 18.632 64H48.25A5.755 5.755 0 0 0 54 58.253v-34.65L40.338 10ZM16.081 41.85c.679-.114 1.634-.2 2.98-.2 1.359 0 2.328.259 2.979.78.622.49 1.041 1.3 1.041 2.254 0 .953-.318 1.763-.896 2.312-.753.708-1.866 1.026-3.168 1.026-.29 0-.55-.014-.753-.043v3.483h-2.183v-9.611ZM48.25 60.48H18.632a2.23 2.23 0 0 1-2.228-2.227v-2.576h27.61a2.316 2.316 0 0 0 2.318-2.316V39.316A2.317 2.317 0 0 0 44.014 37h-27.61V15.747c0-1.225 1-2.224 2.228-2.224l20.389-.021v7.53c0 2.2 1.786 3.986 3.989 3.986l7.382-.021.083 33.256a2.229 2.229 0 0 1-2.225 2.227Zm-23.76-9.062v-9.567c.809-.13 1.865-.201 2.979-.201 1.85 0 3.051.331 3.992 1.04 1.013.751 1.648 1.95 1.648 3.67 0 1.865-.679 3.152-1.62 3.946-1.026.852-2.589 1.257-4.498 1.257-1.143 0-1.953-.073-2.502-.145Zm15.785-5.664v1.791h-3.5v3.917h-2.213v-9.74h5.959v1.806h-3.747v2.226h3.501Z" fill="#fff"/><path d="M40.338 10H18.632c-3.171 0-5.752 2.58-5.752 5.747V37h-.562A2.317 2.317 0 0 0 10 39.316v14.045a2.316 2.316 0 0 0 2.318 2.316h.562v2.576A5.756 5.756 0 0 0 18.632 64H48.25A5.755 5.755 0 0 0 54 58.253v-34.65L40.338 10ZM16.081 41.85c.679-.114 1.634-.2 2.98-.2 1.359 0 2.328.259 2.979.78.622.49 1.041 1.3 1.041 2.254 0 .953-.318 1.763-.896 2.312-.753.708-1.866 1.026-3.168 1.026-.29 0-.55-.014-.753-.043v3.483h-2.183v-9.611ZM48.25 60.48H18.632a2.23 2.23 0 0 1-2.228-2.227v-2.576h27.61a2.316 2.316 0 0 0 2.318-2.316V39.316A2.317 2.317 0 0 0 44.014 37h-27.61V15.747c0-1.225 1-2.224 2.228-2.224l20.389-.021v7.53c0 2.2 1.786 3.986 3.989 3.986l7.382-.021.083 33.256a2.229 2.229 0 0 1-2.225 2.227Zm-23.76-9.062v-9.567c.809-.13 1.865-.201 2.979-.201 1.85 0 3.051.331 3.992 1.04 1.013.751 1.648 1.95 1.648 3.67 0 1.865-.679 3.152-1.62 3.946-1.026.852-2.589 1.257-4.498 1.257-1.143 0-1.953-.073-2.502-.145Zm15.785-5.664v1.791h-3.5v3.917h-2.213v-9.74h5.959v1.806h-3.747v2.226h3.501Z" fill="url(#d)" fill-opacity=".55"/><path d="M16.054 55.327h27.96c1.087 0 1.968-.88 1.968-1.966V39.316c0-1.086-.88-1.966-1.968-1.966h-27.96V15.747a2.58 2.58 0 0 1 2.577-2.574l-2.577 42.154Zm0 0v2.926a2.58 2.58 0 0 0 2.578 2.577H48.25a2.579 2.579 0 0 0 2.575-2.577v-.001l-.083-33.256v-.35h-.35l-7.382.022a3.639 3.639 0 0 1-3.64-3.636v-7.88h-.35l-20.388.021-2.578 42.154Zm11.417-5.834h-.002c-.154 0-.296 0-.417-.005v-5.765a5.66 5.66 0 0 1 .648-.032c.883 0 1.555.248 2.004.687.448.438.72 1.11.713 2.053v.002c0 1.1-.307 1.854-.796 2.333-.49.48-1.214.734-2.15.727Zm3.296-3.06c0 2.327-1.302 3.425-3.298 3.41l3.298-3.41ZM12.88 37.35h.35V15.747a5.408 5.408 0 0 1 5.402-5.397h21.562L53.65 23.748v34.505a5.406 5.406 0 0 1-5.4 5.397H18.632a5.406 5.406 0 0 1-5.402-5.397v-2.926h-.912a1.966 1.966 0 0 1-1.968-1.966V39.316c0-1.086.88-1.966 1.968-1.966h.562Zm3.143 4.156-.292.049v10.257h2.883v-3.45c.128.007.263.01.403.01 1.35 0 2.566-.329 3.407-1.12l.001-.002c.661-.627 1.006-1.535 1.006-2.566 0-1.057-.466-1.97-1.174-2.528-.74-.592-1.803-.856-3.197-.856-1.36 0-2.334.087-3.037.206Zm8.116 9.912v.307l.305.04c.564.074 1.39.148 2.547.148 1.948 0 3.606-.411 4.722-1.338l.002-.002c1.028-.867 1.744-2.256 1.744-4.212 0-1.817-.677-3.126-1.788-3.952-1.024-.77-2.31-1.11-4.202-1.11-1.127 0-2.202.074-3.035.206l-.295.047v9.866Zm16.486-5.664v-.35h-3.5v-1.526h3.745v-2.506h-6.658v10.44h2.912v-3.917h3.501v-2.141Zm-21.45-2.094c.498 0 .839.122 1.049.298.202.17.323.422.323.784 0 .407-.143.701-.381.9-.247.205-.632.339-1.163.339-.155 0-.282-.004-.389-.011v-2.28c.142-.017.328-.03.562-.03Z" stroke="#F3F3F3" stroke-width=".7"/></g><defs><linearGradient id="b" x1="32" y1="10" x2="32" y2="64" gradientUnits="userSpaceOnUse"><stop offset=".141"/><stop offset=".453" stop-color="#fff"/><stop offset=".552" stop-color="#fff"/><stop offset=".887" stop-color="#070707"/></linearGradient><linearGradient id="c" x1="32" y1="10" x2="32" y2="64" gradientUnits="userSpaceOnUse"><stop offset=".141"/><stop offset=".453" stop-color="#fff"/><stop offset=".552" stop-color="#fff"/><stop offset=".887" stop-color="#070707"/></linearGradient><linearGradient id="d" x1="32" y1="10" x2="32" y2="64" gradientUnits="userSpaceOnUse"><stop offset=".141"/><stop offset=".453" stop-color="#fff"/><stop offset=".552" stop-color="#fff"/><stop offset=".887" stop-color="#070707"/></linearGradient><filter id="a" x="0" y="0" width="64" height="74" filterUnits="userSpaceOnUse" color-interpolation-filters="sRGB"><feFlood flood-opacity="0" result="BackgroundImageFix"/><feColorMatrix in="SourceAlpha" values="0 0 0 0 0 0 0 0 0 0 0 0 0 0 0 0 0 0 127 0" result="hardAlpha"/><feOffset/><feGaussianBlur stdDeviation="5"/><feComposite in2="hardAlpha" operator="out"/><feColorMatrix values="0 0 0 0 0.0916667 0 0 0 0 0.0916667 0 0 0 0 0.0916667 0 0 0 0.8 0"/><feBlend in2="BackgroundImageFix" result="effect1_dropShadow_1164_117"/><feBlend in="SourceGraphic" in2="effect1_dropShadow_1164_117" result="shape"/></filter></defs></svg>