<svg width="39" height="39" fill="none" xmlns="http://www.w3.org/2000/svg"><g filter="url(#a)" fill-rule="evenodd" clip-rule="evenodd"><path d="M9.946 5.797a2.727 2.727 0 0 1 4.079.255l2.804 3.603c.514.661.696 1.522.492 2.335l-.854 3.422a1.06 1.06 0 0 0 .278 1.004l3.84 3.84a1.06 1.06 0 0 0 1.005.278l3.42-.855a2.726 2.726 0 0 1 2.335.492l3.604 2.803a2.726 2.726 0 0 1 .254 4.08l-1.615 1.616c-1.157 1.156-2.885 1.664-4.496 1.097A29.117 29.117 0 0 1 14.14 22.86a29.117 29.117 0 0 1-6.907-10.952c-.566-1.61-.058-3.339 1.098-4.495l1.616-1.616Z" fill="#fff"/><path d="M9.946 5.797a2.727 2.727 0 0 1 4.079.255l2.804 3.603c.514.661.696 1.522.492 2.335l-.854 3.422a1.06 1.06 0 0 0 .278 1.004l3.84 3.84a1.06 1.06 0 0 0 1.005.278l3.42-.855a2.726 2.726 0 0 1 2.335.492l3.604 2.803a2.726 2.726 0 0 1 .254 4.08l-1.615 1.616c-1.157 1.156-2.885 1.664-4.496 1.097A29.117 29.117 0 0 1 14.14 22.86a29.117 29.117 0 0 1-6.907-10.952c-.566-1.61-.058-3.339 1.098-4.495l1.616-1.616Z" fill="url(#b)" fill-opacity=".55"/></g><defs><linearGradient id="b" x1="19.501" y1="5" x2="19.501" y2="30" gradientUnits="userSpaceOnUse"><stop offset=".188"/><stop offset=".513" stop-color="#fff"/><stop offset=".887" stop-color="#070707"/></linearGradient><filter id="a" x="0" y="0" width="39" height="39" filterUnits="userSpaceOnUse" color-interpolation-filters="sRGB"><feFlood flood-opacity="0" result="BackgroundImageFix"/><feColorMatrix in="SourceAlpha" values="0 0 0 0 0 0 0 0 0 0 0 0 0 0 0 0 0 0 127 0" result="hardAlpha"/><feOffset dy="2"/><feGaussianBlur stdDeviation="3.5"/><feComposite in2="hardAlpha" operator="out"/><feColorMatrix values="0 0 0 0 0.109804 0 0 0 0 0.109804 0 0 0 0 0.109804 0 0 0 0.6 0"/><feBlend in2="BackgroundImageFix" result="effect1_dropShadow_1294_336"/><feColorMatrix in="SourceAlpha" values="0 0 0 0 0 0 0 0 0 0 0 0 0 0 0 0 0 0 127 0" result="hardAlpha"/><feOffset/><feGaussianBlur stdDeviation="1"/><feComposite in2="hardAlpha" operator="out"/><feColorMatrix values="0 0 0 0 0.109804 0 0 0 0 0.109804 0 0 0 0 0.109804 0 0 0 0.9 0"/><feBlend in2="effect1_dropShadow_1294_336" result="effect2_dropShadow_1294_336"/><feColorMatrix in="SourceAlpha" values="0 0 0 0 0 0 0 0 0 0 0 0 0 0 0 0 0 0 127 0" result="hardAlpha"/><feOffset dy="1"/><feGaussianBlur stdDeviation="2"/><feComposite in2="hardAlpha" operator="out"/><feColorMatrix values="0 0 0 0 0.108333 0 0 0 0 0.108333 0 0 0 0 0.108333 0 0 0 1 0"/><feBlend in2="effect2_dropShadow_1294_336" result="effect3_dropShadow_1294_336"/><feBlend in="SourceGraphic" in2="effect3_dropShadow_1294_336" result="shape"/><feColorMatrix in="SourceAlpha" values="0 0 0 0 0 0 0 0 0 0 0 0 0 0 0 0 0 0 127 0" result="hardAlpha"/><feOffset dx="1" dy="1"/><feGaussianBlur stdDeviation=".5"/><feComposite in2="hardAlpha" operator="arithmetic" k2="-1" k3="1"/><feColorMatrix values="0 0 0 0 1 0 0 0 0 1 0 0 0 0 1 0 0 0 0.4 0"/><feBlend in2="shape" result="effect4_innerShadow_1294_336"/></filter></defs></svg>