<svg width="52" height="52" fill="none" xmlns="http://www.w3.org/2000/svg"><path d="M11.771 25.11h-.001c-.453.178-.813.381-1.07.608-.256.224-.438.496-.466.807-.028.321.117.602.345.817.224.21.54.373.918.493h.001l6.418 2.003.154.048.137-.086 14.887-9.373.007-.005c.056-.037.11-.068.163-.093l-11.83 10.687-.105.095-.01.14-.46 6.615-.027.375h.375c.393 0 .695-.087.953-.237.24-.14.428-.328.593-.492l.01-.01 2.92-2.814 6.263 4.615.016.013.019.01c.633.36 1.268.5 1.817.25.547-.247.878-.822 1.046-1.58v-.002l4.269-20.11.245-1.157-.169.17c-.038-.487-.208-.887-.5-1.172-.477-.465-1.177-.523-1.842-.283l-.007.003-25.07 9.665ZM51.65 26c0 14.17-11.48 25.65-25.65 25.65C11.83 51.65.35 40.17.35 26 .35 11.83 11.83.35 26 .35 40.17.35 51.65 11.83 51.65 26Z" fill="#fff"/><path d="M11.771 25.11h-.001c-.453.178-.813.381-1.07.608-.256.224-.438.496-.466.807-.028.321.117.602.345.817.224.21.54.373.918.493h.001l6.418 2.003.154.048.137-.086 14.887-9.373.007-.005c.056-.037.11-.068.163-.093l-11.83 10.687-.105.095-.01.14-.46 6.615-.027.375h.375c.393 0 .695-.087.953-.237.24-.14.428-.328.593-.492l.01-.01 2.92-2.814 6.263 4.615.016.013.019.01c.633.36 1.268.5 1.817.25.547-.247.878-.822 1.046-1.58v-.002l4.269-20.11.245-1.157-.169.17c-.038-.487-.208-.887-.5-1.172-.477-.465-1.177-.523-1.842-.283l-.007.003-25.07 9.665ZM51.65 26c0 14.17-11.48 25.65-25.65 25.65C11.83 51.65.35 40.17.35 26 .35 11.83 11.83.35 26 .35 40.17.35 51.65 11.83 51.65 26Z" fill="url(#a)" fill-opacity=".55"/><path d="M11.771 25.11h-.001c-.453.178-.813.381-1.07.608-.256.224-.438.496-.466.807-.028.321.117.602.345.817.224.21.54.373.918.493h.001l6.418 2.003.154.048.137-.086 14.887-9.373.007-.005c.056-.037.11-.068.163-.093l-11.83 10.687-.105.095-.01.14-.46 6.615-.027.375h.375c.393 0 .695-.087.953-.237.24-.14.428-.328.593-.492l.01-.01 2.92-2.814 6.263 4.615.016.013.019.01c.633.36 1.268.5 1.817.25.547-.247.878-.822 1.046-1.58v-.002l4.269-20.11.245-1.157-.169.17c-.038-.487-.208-.887-.5-1.172-.477-.465-1.177-.523-1.842-.283l-.007.003-25.07 9.665ZM51.65 26c0 14.17-11.48 25.65-25.65 25.65C11.83 51.65.35 40.17.35 26 .35 11.83 11.83.35 26 .35 40.17.35 51.65 11.83 51.65 26Z" stroke="#F3F3F3" stroke-width=".7"/><defs><linearGradient id="a" x1="26" y1="0" x2="26" y2="52" gradientUnits="userSpaceOnUse"><stop offset=".188"/><stop offset=".513" stop-color="#fff"/><stop offset=".887" stop-color="#070707"/></linearGradient></defs></svg>