<svg width="39" height="39" fill="none" xmlns="http://www.w3.org/2000/svg"><g filter="url(#a)"><path d="M32 17.5a12.5 12.5 0 1 1-25 0 12.5 12.5 0 0 1 25 0Zm-12.5-7.031a.781.781 0 1 0-1.563 0v8.594a.78.78 0 0 0 .394.678l5.469 3.125a.781.781 0 0 0 .775-1.357l-5.075-2.9v-8.14Z" fill="#fff"/><path d="M32 17.5a12.5 12.5 0 1 1-25 0 12.5 12.5 0 0 1 25 0Zm-12.5-7.031a.781.781 0 1 0-1.563 0v8.594a.78.78 0 0 0 .394.678l5.469 3.125a.781.781 0 0 0 .775-1.357l-5.075-2.9v-8.14Z" fill="url(#b)" fill-opacity=".55"/></g><defs><linearGradient id="b" x1="19.5" y1="5" x2="19.5" y2="30" gradientUnits="userSpaceOnUse"><stop offset=".188"/><stop offset=".513" stop-color="#fff"/><stop offset=".887" stop-color="#070707"/></linearGradient><filter id="a" x="0" y="0" width="39" height="39" filterUnits="userSpaceOnUse" color-interpolation-filters="sRGB"><feFlood flood-opacity="0" result="BackgroundImageFix"/><feColorMatrix in="SourceAlpha" values="0 0 0 0 0 0 0 0 0 0 0 0 0 0 0 0 0 0 127 0" result="hardAlpha"/><feOffset dy="2"/><feGaussianBlur stdDeviation="3.5"/><feComposite in2="hardAlpha" operator="out"/><feColorMatrix values="0 0 0 0 0.109804 0 0 0 0 0.109804 0 0 0 0 0.109804 0 0 0 0.6 0"/><feBlend in2="BackgroundImageFix" result="effect1_dropShadow_1294_341"/><feColorMatrix in="SourceAlpha" values="0 0 0 0 0 0 0 0 0 0 0 0 0 0 0 0 0 0 127 0" result="hardAlpha"/><feOffset/><feGaussianBlur stdDeviation="1"/><feComposite in2="hardAlpha" operator="out"/><feColorMatrix values="0 0 0 0 0.109804 0 0 0 0 0.109804 0 0 0 0 0.109804 0 0 0 0.9 0"/><feBlend in2="effect1_dropShadow_1294_341" result="effect2_dropShadow_1294_341"/><feColorMatrix in="SourceAlpha" values="0 0 0 0 0 0 0 0 0 0 0 0 0 0 0 0 0 0 127 0" result="hardAlpha"/><feOffset dy="1"/><feGaussianBlur stdDeviation="2"/><feComposite in2="hardAlpha" operator="out"/><feColorMatrix values="0 0 0 0 0.108333 0 0 0 0 0.108333 0 0 0 0 0.108333 0 0 0 1 0"/><feBlend in2="effect2_dropShadow_1294_341" result="effect3_dropShadow_1294_341"/><feBlend in="SourceGraphic" in2="effect3_dropShadow_1294_341" result="shape"/><feColorMatrix in="SourceAlpha" values="0 0 0 0 0 0 0 0 0 0 0 0 0 0 0 0 0 0 127 0" result="hardAlpha"/><feOffset dx="1" dy="1"/><feGaussianBlur stdDeviation=".5"/><feComposite in2="hardAlpha" operator="arithmetic" k2="-1" k3="1"/><feColorMatrix values="0 0 0 0 1 0 0 0 0 1 0 0 0 0 1 0 0 0 0.4 0"/><feBlend in2="shape" result="effect4_innerShadow_1294_341"/></filter></defs></svg>