<svg width="52" height="52" fill="none" xmlns="http://www.w3.org/2000/svg"><path d="M11.966 30.601a5.525 5.525 0 0 0 5.526 5.53h17.016a5.526 5.526 0 0 0 5.526-5.53l-.35-9.202a5.176 5.176 0 0 0-5.176-5.18H17.492a5.176 5.176 0 0 0-5.176 5.18h-.35V30.6Zm0 0h.35-.35Zm10.778-8.186 6.166 3.595-6.166 3.576v-7.171ZM11.75 4.673a25.65 25.65 0 1 1 28.5 42.655 25.65 25.65 0 0 1-28.5-42.655Z" fill="#fff"/><path d="M11.966 30.601a5.525 5.525 0 0 0 5.526 5.53h17.016a5.526 5.526 0 0 0 5.526-5.53l-.35-9.202a5.176 5.176 0 0 0-5.176-5.18H17.492a5.176 5.176 0 0 0-5.176 5.18h-.35V30.6Zm0 0h.35-.35Zm10.778-8.186 6.166 3.595-6.166 3.576v-7.171ZM11.75 4.673a25.65 25.65 0 1 1 28.5 42.655 25.65 25.65 0 0 1-28.5-42.655Z" fill="url(#a)" fill-opacity=".55"/><path d="M11.966 30.601a5.525 5.525 0 0 0 5.526 5.53h17.016a5.526 5.526 0 0 0 5.526-5.53l-.35-9.202a5.176 5.176 0 0 0-5.176-5.18H17.492a5.176 5.176 0 0 0-5.176 5.18h-.35V30.6Zm0 0h.35-.35Zm10.778-8.186 6.166 3.595-6.166 3.576v-7.171ZM11.75 4.673a25.65 25.65 0 1 1 28.5 42.655 25.65 25.65 0 0 1-28.5-42.655Z" stroke="#F3F3F3" stroke-width=".7"/><defs><linearGradient id="a" x1="26" y1="0" x2="26" y2="52" gradientUnits="userSpaceOnUse"><stop offset=".188"/><stop offset=".513" stop-color="#fff"/><stop offset=".887" stop-color="#070707"/></linearGradient></defs></svg>