<svg width="113" height="115" fill="none" xmlns="http://www.w3.org/2000/svg"><g filter="url(#a)" fill="#F3F3F3"><path d="M16.84 87.517c.051-.2.18-.361.355-.467a.728.728 0 0 1 .559-.085c.2.06.352.18.454.356a.761.761 0 0 1-.266 1.03.736.736 0 0 1-.57.092.709.709 0 0 1-.448-.346.769.769 0 0 1-.084-.58ZM9.739 61.656a4.844 4.844 0 0 1 1.101-.13 4.639 4.639 0 0 1 2.134.434c.329.159.633.372.899.631.277.257.514.56.716.92.201.36.352.768.454 1.237.1.457.136.904.103 1.318a3.95 3.95 0 0 1-.266 1.145 3.7 3.7 0 0 1-.554.951 3.84 3.84 0 0 1-.79.772c-.294.228-.61.411-.955.577-.335.15-.69.269-1.053.352-.655.15-1.26.19-1.85.129a4.215 4.215 0 0 1-1.566-.478A3.641 3.641 0 0 1 6.93 68.43c-.335-.465-.565-1.016-.706-1.66-.14-.645-.163-1.255-.051-1.81.098-.565.31-1.057.62-1.497.309-.44.72-.805 1.217-1.116a5.638 5.638 0 0 1 1.729-.692Zm.245 1.125c-.491.113-.944.29-1.337.516a3.342 3.342 0 0 0-.962.824 2.742 2.742 0 0 0-.497 1.1c-.094.414-.084.855.018 1.324.103.47.277.873.534 1.208.243.326.546.588.904.765.36.188.766.304 1.215.337.45.032.932-.005 1.424-.118a5.24 5.24 0 0 0 1.353-.495c.393-.225.715-.496.965-.812.25-.316.404-.684.5-1.087.082-.413.07-.865-.04-1.37-.11-.504-.287-.919-.533-1.256-.257-.335-.548-.601-.906-.777a3.005 3.005 0 0 0-1.205-.29c-.438-.035-.918.013-1.433.131Zm-.678-10.523.606-4.544-3.518-.493.153-1.142 8.532 1.196-.152 1.142-4.017-.563-.606 4.544 4.017.563-.152 1.142-8.533-1.197.152-1.142 3.518.494Zm-.481-13.501 9.243.084-.426 1.21-2.779-.056-1.124 3.192 2.157 1.823-.402 1.143-7.132-6.083.463-1.313Zm4.159 3.83.916-2.603-4.024-.096 3.108 2.7Zm2.441-7.511c.455.29.907.494 1.34.614.432.12.845.156 1.23.102a2.483 2.483 0 0 0 1.063-.388 2.58 2.58 0 0 0 .81-.849 2.27 2.27 0 0 0 .346-.961 2.434 2.434 0 0 0-.049-.914 3.106 3.106 0 0 0-.349-.835 3.13 3.13 0 0 0-.577-.668l.58-.953c.2.156.387.332.566.546a4.02 4.02 0 0 1 .765 1.515c.082.28.126.578.13.894-.006.31-.044.627-.141.949a3.574 3.574 0 0 1-.421.97c-.137.225-.3.448-.507.672a3.335 3.335 0 0 1-.694.61 3.408 3.408 0 0 1-.877.451c-.325.12-.682.176-1.061.176a4.2 4.2 0 0 1-1.236-.206c-.443-.127-.92-.36-1.415-.676a6.873 6.873 0 0 1-1.227-.984 4.826 4.826 0 0 1-.774-1.035 3.629 3.629 0 0 1-.373-1.05 3.704 3.704 0 0 1-.066-1.025c.034-.333.105-.658.207-.964.117-.309.255-.605.417-.872.206-.338.433-.62.656-.848.239-.232.48-.42.728-.574a3.426 3.426 0 0 1 1.497-.41c.241-.003.473.032.692.086.22.055.417.124.595.223l-.586.965a2.393 2.393 0 0 0-.795-.124 1.864 1.864 0 0 0-.74.154 2.555 2.555 0 0 0-.648.397 3.111 3.111 0 0 0-.53.643 2.83 2.83 0 0 0-.411 1.161c-.05.382-.01.778.113 1.155.132.383.33.751.625 1.096.295.346.672.672 1.117.957Zm14.557-16.388a.736.736 0 0 1 .465.343.762.762 0 0 1 .095.567.79.79 0 0 1-.34.477.708.708 0 0 1-.556.103.728.728 0 0 1-.459-.332.77.77 0 0 1-.101-.578c.045-.2.159-.36.33-.47a.735.735 0 0 1 .566-.11Zm20.37-8.896c.09.361.146.731.152 1.102.02.379 0 .744-.07 1.11a4.657 4.657 0 0 1-.318 1.051 3.51 3.51 0 0 1-.61.93c-.249.288-.545.54-.898.757a4.502 4.502 0 0 1-1.222.506 4.517 4.517 0 0 1-1.309.158c-.4-.019-.79-.09-1.143-.22a3.577 3.577 0 0 1-.958-.518 3.725 3.725 0 0 1-.784-.762 5.13 5.13 0 0 1-.592-.936 5.63 5.63 0 0 1-.372-1.044 5.641 5.641 0 0 1-.166-1.854 4.34 4.34 0 0 1 .443-1.593 3.759 3.759 0 0 1 1.053-1.232c.455-.355.998-.61 1.636-.777.638-.168 1.245-.215 1.8-.125a3.534 3.534 0 0 1 1.5.56c.444.294.816.692 1.135 1.18a5.57 5.57 0 0 1 .723 1.707Zm-1.114.293a4.84 4.84 0 0 0-.54-1.322 3.25 3.25 0 0 0-.84-.934 2.655 2.655 0 0 0-1.102-.454 2.983 2.983 0 0 0-1.318.073 3.037 3.037 0 0 0-1.19.585 2.615 2.615 0 0 0-.742.94c-.18.37-.287.782-.31 1.235a4.89 4.89 0 0 0 .146 1.425c.128.513.302.963.52 1.34.232.386.508.698.828.937.319.238.687.377 1.09.457.413.066.863.034 1.362-.097.499-.13.908-.325 1.239-.585.328-.273.586-.576.754-.943.168-.367.252-.773.263-1.223a4.801 4.801 0 0 0-.16-1.434Zm10.196-.976 4.557.493.364-3.533 1.145.124-.882 8.57-1.146-.123.416-4.035-4.558-.494-.415 4.035-1.145-.124.882-8.57 1.145.123-.363 3.534Zm13.193-.762.314 9.33-1.218-.408-.063-2.805-3.209-1.076-1.711 2.21-1.15-.385 5.717-7.309 1.32.443Zm-3.614 4.268 2.617.877-.078-4.063-2.54 3.186Zm7.354 2.366c-.266.47-.447.935-.546 1.378a3.2 3.2 0 0 0-.05 1.256 2.649 2.649 0 0 0 1.29 1.886c.319.19.627.304.956.332.312.033.611.016.893-.068.298-.088.56-.21.804-.373.24-.178.458-.37.63-.601l.96.571c-.145.207-.31.402-.513.588a3.807 3.807 0 0 1-1.452.81c-.272.09-.562.14-.872.152a3.3 3.3 0 0 1-.936-.125 3.51 3.51 0 0 1-.968-.41 4.266 4.266 0 0 1-.68-.503 3.52 3.52 0 0 1-.626-.694 3.619 3.619 0 0 1-.478-.886 3.27 3.27 0 0 1-.216-1.078 4.404 4.404 0 0 1 .151-1.265c.106-.454.315-.944.605-1.455.284-.502.596-.93.913-1.271.318-.342.647-.607.984-.811.33-.194.668-.328 1.013-.402.335-.08.666-.105 1.001-.087.329.028.65.094.954.191a4.79 4.79 0 0 1 1.73 1.06c.237.238.43.48.592.73.146.254.249.51.325.766.076.255.126.508.138.753a2.86 2.86 0 0 1-.055.707 2.455 2.455 0 0 1-.195.61l-.969-.577a2.5 2.5 0 0 0 .089-.813 1.994 1.994 0 0 0-.181-.751 2.697 2.697 0 0 0-.416-.653 3.166 3.166 0 0 0-.653-.528 2.752 2.752 0 0 0-1.155-.396 2.492 2.492 0 0 0-1.126.139c-.37.142-.723.351-1.05.66-.326.308-.63.699-.89 1.158Zm15.18 12.565a.77.77 0 0 1-.294.507.727.727 0 0 1-.544.154.754.754 0 0 1-.494-.298.763.763 0 0 1 .138-1.056.734.734 0 0 1 .554-.162c.2.027.364.126.486.29a.77.77 0 0 1 .154.565Zm10 20.459a4.82 4.82 0 0 1-1.077.266 4.44 4.44 0 0 1-1.102.046 4.525 4.525 0 0 1-1.064-.21 3.368 3.368 0 0 1-.967-.515 3.667 3.667 0 0 1-.82-.824 4.45 4.45 0 0 1-.6-1.173 4.567 4.567 0 0 1-.261-1.297 3.975 3.975 0 0 1 .126-1.171c.093-.354.239-.7.434-1.015a3.87 3.87 0 0 1 .69-.866c.263-.263.555-.485.876-.692a5.662 5.662 0 0 1 1.002-.482 5.567 5.567 0 0 1 1.818-.36 4.182 4.182 0 0 1 1.609.28c.491.204.93.516 1.302.928.388.42.683.939.9 1.562.217.623.313 1.227.269 1.793a3.68 3.68 0 0 1-.434 1.564c-.253.476-.617.89-1.072 1.262a5.656 5.656 0 0 1-1.629.904Zm-.379-1.088c.473-.174.9-.407 1.262-.68.362-.273.644-.594.855-.94.206-.356.324-.744.36-1.153.043-.425-.021-.862-.179-1.315-.157-.453-.378-.833-.674-1.133a2.498 2.498 0 0 0-.988-.648 3.057 3.057 0 0 0-1.245-.183 4.83 4.83 0 0 0-1.397.295 5.252 5.252 0 0 0-1.281.661 3.343 3.343 0 0 0-.859.928c-.21.345-.317.73-.364 1.143-.031.42.036.869.206 1.356.17.487.394.878.678 1.182.296.301.616.529.992.66.376.13.784.172 1.23.137.437-.02.908-.129 1.404-.31Zm1.971 10.473-.298 4.574 3.543.243-.075 1.15-8.595-.59.075-1.15 4.046.278.299-4.575-4.047-.278.075-1.149 8.596.59-.075 1.15-3.544-.244Zm1.387 13.429-9.236.565.344-1.238 2.778-.138.905-3.26-2.277-1.666.325-1.168 7.533 5.563-.372 1.341Zm-4.413-3.527-.739 2.66 4.025-.188-3.286-2.472Zm-1.932 7.663a4.976 4.976 0 0 0-1.38-.519 3.033 3.033 0 0 0-1.234-.016c-.39.075-.728.232-1.035.46-.308.23-.558.53-.751.903-.171.33-.268.647-.279.982a2.43 2.43 0 0 0 .111.908c.101.3.235.564.406.808.187.239.385.456.622.626l-.513.99a3.687 3.687 0 0 1-.603-.505 4.423 4.423 0 0 1-.504-.67 4.054 4.054 0 0 1-.364-.786 3.325 3.325 0 0 1-.191-.883c-.016-.31 0-.628.076-.956.06-.323.177-.655.353-.996.122-.234.27-.468.46-.706.18-.243.403-.464.651-.656.243-.21.528-.368.845-.51.317-.142.67-.223 1.048-.25a4.24 4.24 0 0 1 1.248.12c.45.095.942.295 1.458.576.506.275.942.581 1.293.895a4.8 4.8 0 0 1 .844.979c.207.331.355.671.445 1.02.095.34.136.676.136 1.017a4.593 4.593 0 0 1-.141.976 5.277 5.277 0 0 1-.357.898 4.705 4.705 0 0 1-.596.891c-.223.248-.45.452-.687.623-.243.155-.49.266-.736.351a3.037 3.037 0 0 1-.732.161 2.72 2.72 0 0 1-.697-.037 2.393 2.393 0 0 1-.608-.181l.518-1.002a2.4 2.4 0 0 0 .803.068c.256-.025.501-.082.727-.205.22-.112.43-.257.62-.441.185-.2.354-.422.486-.678a2.82 2.82 0 0 0 .331-1.186 2.659 2.659 0 0 0-.192-1.143 3.328 3.328 0 0 0-.7-1.05 5.038 5.038 0 0 0-1.18-.876ZM83.656 95.274a.74.74 0 0 1-.578.024.756.756 0 0 1-.429-.38.785.785 0 0 1-.03-.585.714.714 0 0 1 .371-.428.733.733 0 0 1 .567-.028c.192.068.35.2.44.385.09.185.1.38.035.573a.74.74 0 0 1-.376.44Zm-23.43 9.784a4.886 4.886 0 0 1-.213-1.092 4.564 4.564 0 0 1 .007-1.112 4.69 4.69 0 0 1 .258-1.069c.132-.346.32-.672.556-.964a3.79 3.79 0 0 1 .854-.809 4.48 4.48 0 0 1 1.19-.578 4.51 4.51 0 0 1 1.297-.234c.4-.004.793.044 1.153.154.346.102.683.257.985.46.313.202.588.44.825.716.248.273.454.572.644.901.175.321.32.665.43 1.021.199.641.285 1.244.27 1.843a4.361 4.361 0 0 1-.353 1.617 3.784 3.784 0 0 1-.98 1.292c-.435.381-.962.667-1.59.872-.627.204-1.23.287-1.787.23a3.536 3.536 0 0 1-1.529-.473c-.46-.267-.853-.643-1.199-1.111a5.572 5.572 0 0 1-.818-1.664Zm1.095-.357c.15.481.36.917.614 1.289.253.371.557.663.89.883.343.216.722.345 1.126.39.418.053.854-.001 1.31-.15a3.042 3.042 0 0 0 1.154-.654c.303-.276.54-.606.688-.982a3.2 3.2 0 0 0 .24-1.252 4.893 4.893 0 0 0-.227-1.416 5.2 5.2 0 0 0-.594-1.308 3.218 3.218 0 0 0-.878-.887c-.332-.22-.708-.337-1.115-.394-.415-.041-.862.017-1.352.177-.49.16-.888.378-1.203.658-.312.291-.552.609-.7.985a3.092 3.092 0 0 0-.193 1.237c-.001.442.084.919.24 1.424Zm-8.568 1.273-4.578-.225-.166 3.548-1.15-.056.401-8.607 1.15.057-.188 4.051 4.578.225.19-4.052 1.15.057-.402 8.606-1.15-.056.165-3.548Zm-11.878 1.27-.84-9.291 1.24.336.221 2.795 3.267.885 1.585-2.305 1.17.317-5.3 7.627-1.343-.364Zm3.37-4.47-2.663-.722.306 4.049 2.357-3.327Zm-7.076-1.676c.24-.484.393-.958.467-1.406.075-.449.07-.87-.022-1.256a2.647 2.647 0 0 0-1.395-1.807c-.33-.171-.644-.267-.974-.276a2.294 2.294 0 0 0-.889.119 2.923 2.923 0 0 0-.782.418 3.023 3.023 0 0 0-.596.637l-.99-.515c.133-.214.287-.418.479-.616a3.797 3.797 0 0 1 1.404-.893c.266-.105.554-.172.862-.2.304-.019.618-.004.942.07.32.058.65.175.99.352.235.122.47.27.709.463.245.181.468.406.665.657.213.246.378.535.528.856.149.32.24.679.277 1.063a4.36 4.36 0 0 1-.08 1.271c-.079.459-.26.96-.52 1.487a6.796 6.796 0 0 1-.84 1.321 4.603 4.603 0 0 1-.936.865c-.32.213-.65.366-.99.459-.33.099-.66.144-.995.146a4.44 4.44 0 0 1-.963-.136 5.305 5.305 0 0 1-.895-.357 4.737 4.737 0 0 1-.894-.6 4.487 4.487 0 0 1-.634-.694 3.627 3.627 0 0 1-.368-.746 3.224 3.224 0 0 1-.181-.743 2.854 2.854 0 0 1 .016-.709 2.46 2.46 0 0 1 .159-.62l1 .52a2.516 2.516 0 0 0-.041.817c.032.26.096.509.224.738.117.223.266.436.452.628.203.186.426.356.682.489a2.76 2.76 0 0 0 1.176.328c.378.02.761-.051 1.118-.204a3.157 3.157 0 0 0 1.01-.718c.31-.327.591-.735.825-1.208Z"/><path d="M51.32 64.295V51.219c0-.915 1.04-1.44 1.776-.897l8.615 6.362c.593.438.605 1.322.023 1.775l-8.615 6.715c-.731.57-1.8.049-1.8-.879Z" stroke="#F3F3F3" stroke-width=".557"/></g><defs><filter id="a" x="2.329" y="3.403" width="107.429" height="110.175" filterUnits="userSpaceOnUse" color-interpolation-filters="sRGB"><feFlood flood-opacity="0" result="BackgroundImageFix"/><feColorMatrix in="SourceAlpha" values="0 0 0 0 0 0 0 0 0 0 0 0 0 0 0 0 0 0 127 0" result="hardAlpha"/><feOffset dy="1"/><feGaussianBlur stdDeviation="1.5"/><feComposite in2="hardAlpha" operator="out"/><feColorMatrix values="0 0 0 0 0 0 0 0 0 0 0 0 0 0 0 0 0 0 0.5 0"/><feBlend in2="BackgroundImageFix" result="effect1_dropShadow_1030_840"/><feBlend in="SourceGraphic" in2="effect1_dropShadow_1030_840" result="shape"/></filter></defs></svg>