<svg width="113" height="115" viewBox="0 0 113 115" fill="none" xmlns="http://www.w3.org/2000/svg">
<g filter="url(#filter0_d_1030_840)">
<path d="M16.8398 87.5168C16.8914 87.3175 17.0198 87.1558 17.1945 87.0503C17.3691 86.9448 17.5487 86.9204 17.754 86.9646C17.9549 87.0254 18.1062 87.1443 18.2078 87.3211C18.3094 87.498 18.3374 87.6914 18.2859 87.8907C18.2241 88.0962 18.1161 88.2455 17.9415 88.351C17.7669 88.4565 17.5667 88.4934 17.3718 88.443C17.1768 88.3926 17.0255 88.2737 16.9239 88.0968C16.8163 87.9095 16.7943 87.7266 16.8398 87.5168Z" fill="#F3F3F3"/>
<path d="M9.73865 61.6558C10.1012 61.5726 10.4715 61.5246 10.8403 61.5262C11.2182 61.5134 11.5804 61.5411 11.9411 61.6184C12.3019 61.6957 12.6443 61.8019 12.9736 61.9603C13.3029 62.1186 13.6073 62.332 13.8726 62.5912C14.1496 62.8478 14.3875 63.1502 14.5888 63.5103C14.7902 63.8704 14.9407 64.279 15.0429 64.748C15.1426 65.2053 15.1787 65.6525 15.1461 66.0662C15.111 66.4682 15.0239 66.8575 14.8799 67.2107C14.7449 67.5494 14.5581 67.8754 14.326 68.1625C14.0964 68.4614 13.8332 68.7187 13.5364 68.9345C13.2421 69.1621 12.9259 69.3454 12.5812 69.5106C12.2457 69.6614 11.8908 69.7798 11.5282 69.8629C10.8732 70.0132 10.2679 70.0535 9.67728 69.992C9.09835 69.9278 8.5717 69.7654 8.11158 69.5139C7.64891 69.2507 7.25022 68.8867 6.92975 68.4308C6.59504 67.9659 6.36451 67.4155 6.2239 66.7707C6.08329 66.1258 6.06074 65.5155 6.17304 64.9603C6.27109 64.3962 6.48316 63.9043 6.79245 63.4641C7.10173 63.0238 7.51334 62.6586 8.01047 62.3476C8.51929 62.0339 9.08366 61.806 9.73865 61.6558ZM9.98407 62.7813C9.49282 62.894 9.04031 63.0716 8.64736 63.2972C8.25442 63.5227 7.93529 63.8052 7.68487 64.1212C7.43701 64.4489 7.27211 64.8191 7.18761 65.2201C7.09397 65.6355 7.10413 66.0764 7.20639 66.5453C7.30865 67.0143 7.48256 67.4176 7.73981 67.7526C7.98281 68.0785 8.28576 68.3414 8.64355 68.5179C9.00389 68.7061 9.40994 68.8222 9.85913 68.8546C10.3083 68.887 10.7915 68.8501 11.2828 68.7374C11.7974 68.6194 12.2525 68.4534 12.6363 68.2423C13.0292 68.0167 13.3509 67.746 13.6013 67.43C13.8517 67.1141 14.0049 66.7465 14.1011 66.3428C14.1831 65.9301 14.1704 65.4775 14.0604 64.9734C13.9505 64.4692 13.774 64.0542 13.5285 63.7165C13.2712 63.3816 12.98 63.116 12.6222 62.9395C12.2644 62.7631 11.8635 62.6704 11.4168 62.6497C10.9793 62.6146 10.4987 62.6633 9.98407 62.7813Z" fill="#F3F3F3"/>
<path d="M9.30602 52.2576L9.91186 47.7138L6.39429 47.2205L6.54655 46.0786L15.079 47.2752L14.9268 48.4171L10.9101 47.8538L10.3042 52.3976L14.3209 52.9609L14.1687 54.1028L5.63619 52.9061L5.78845 51.7643L9.30602 52.2576Z" fill="#F3F3F3"/>
<path d="M8.82465 38.7567L18.0683 38.8408L17.6418 40.0519L14.8633 39.9952L13.7394 43.1871L15.8962 45.0095L15.4937 46.1528L8.36234 40.0697L8.82465 38.7567ZM12.9838 42.5874L13.9005 39.9841L9.87634 39.8883L12.9838 42.5874Z" fill="#F3F3F3"/>
<path d="M15.4253 35.0757C15.8803 35.3665 16.3323 35.5699 16.7648 35.6896C17.1974 35.8094 17.6105 35.8457 17.9942 35.7918C18.3879 35.7444 18.7358 35.6108 19.058 35.4038C19.3803 35.1969 19.6504 34.9139 19.8685 34.555C20.0617 34.237 20.1793 33.9278 20.2137 33.5939C20.252 33.2767 20.2413 32.9708 20.1652 32.6802C20.0852 32.3728 19.9702 32.1 19.8163 31.845C19.646 31.5939 19.4633 31.3632 19.2393 31.1774L19.8187 30.2236C20.0186 30.3798 20.206 30.5565 20.3849 30.7704C20.5575 30.9946 20.7138 31.2226 20.8412 31.4749C20.9687 31.7272 21.0736 31.9936 21.1497 32.2842C21.232 32.5646 21.2755 32.8629 21.28 33.179C21.2743 33.4886 21.236 33.8058 21.1386 34.1279C21.0575 34.4463 20.9173 34.7695 20.7179 35.0977C20.5808 35.3234 20.4173 35.5463 20.211 35.7704C20.0148 36.001 19.7781 36.2057 19.5174 36.3807C19.2605 36.5725 18.9655 36.7115 18.6402 36.8311C18.3149 36.9506 17.9577 37.0071 17.5788 37.007C17.1999 37.0069 16.7789 36.9373 16.3425 36.8008C15.8998 36.6745 15.4237 36.4415 14.9283 36.1249C14.4429 35.8147 14.0291 35.4792 13.7009 35.1413C13.3728 34.8035 13.1201 34.4569 12.9265 34.1055C12.7431 33.7604 12.6188 33.4105 12.5536 33.0556C12.4822 32.711 12.4637 32.3718 12.488 32.0314C12.5224 31.6975 12.5934 31.3726 12.6947 31.0672C12.8124 30.758 12.9503 30.4617 13.1122 30.1951C13.3178 29.8566 13.5452 29.5748 13.7679 29.3469C14.0069 29.1152 14.2474 28.9272 14.4957 28.7727C14.7479 28.6348 15.0016 28.5407 15.2529 28.4735C15.5043 28.4064 15.7533 28.3662 15.9938 28.3632C16.2342 28.3602 16.4661 28.3945 16.6854 28.4492C16.9048 28.504 17.1017 28.5728 17.2798 28.6724L16.6941 29.6365C16.4242 29.5494 16.1558 29.506 15.899 29.5128C15.6422 29.5195 15.3932 29.5597 15.1597 29.6668C14.9325 29.7636 14.713 29.8939 14.5113 30.064C14.3136 30.2509 14.1299 30.4609 13.9803 30.7071C13.7498 31.0865 13.615 31.4702 13.5696 31.8683C13.5204 32.2497 13.5607 32.6456 13.6826 33.0225C13.8147 33.4059 14.0121 33.7741 14.3076 34.1195C14.6031 34.465 14.9803 34.7914 15.4253 35.0757Z" fill="#F3F3F3"/>
<path d="M29.9823 18.6881C30.1787 18.7325 30.3398 18.8569 30.4467 19.0306C30.5536 19.2043 30.5812 19.3865 30.5421 19.5976C30.4866 19.8051 30.3732 19.9642 30.202 20.075C30.0307 20.1859 29.8419 20.2224 29.6456 20.178C29.4429 20.1234 29.2944 20.0195 29.1875 19.8457C29.0806 19.672 29.0404 19.4693 29.0858 19.2685C29.1312 19.0676 29.2446 18.9084 29.4158 18.7976C29.5971 18.6802 29.7759 18.6502 29.9823 18.6881Z" fill="#F3F3F3"/>
<path d="M50.3523 9.79222C50.4424 10.1531 50.4977 10.5232 50.5037 10.8938C50.5241 11.273 50.504 11.6381 50.4345 12.0037C50.365 12.3693 50.2665 12.7178 50.1157 13.0551C49.965 13.3924 49.7591 13.707 49.5068 13.9842C49.2573 14.273 48.9614 14.5244 48.6075 14.7415C48.2535 14.9585 47.8503 15.1264 47.386 15.2484C46.9333 15.3672 46.4894 15.4218 46.0773 15.406C45.6768 15.3871 45.2879 15.3156 44.9338 15.1853C44.5943 15.0635 44.2663 14.8892 43.976 14.6677C43.6741 14.4492 43.4128 14.1953 43.1921 13.9058C42.9598 13.6195 42.7711 13.3093 42.5997 12.9697C42.4429 12.6387 42.3179 12.2869 42.2278 11.926C42.065 11.274 42.0125 10.6675 42.0616 10.0716C42.1136 9.48722 42.2642 8.95141 42.5049 8.4788C42.7571 8.00315 43.111 7.58766 43.5577 7.24702C44.0132 6.89168 44.5557 6.63753 45.1941 6.46988C45.8324 6.30222 46.4389 6.25459 46.9932 6.34472C47.5562 6.42016 48.0497 6.61313 48.4938 6.90589C48.9379 7.19864 49.3095 7.59728 49.6289 8.08407C49.9513 8.5825 50.1895 9.14024 50.3523 9.79222ZM49.2381 10.0849C49.116 9.59587 48.93 9.14846 48.6977 8.76286C48.4654 8.37726 48.178 8.06816 47.8587 7.82946C47.5277 7.59382 47.1562 7.44327 46.7557 7.37477C46.3407 7.29768 45.9025 7.32592 45.4383 7.44785C44.974 7.56978 44.5765 7.76102 44.2487 8.0332C43.9296 8.2907 43.6744 8.60585 43.5063 8.97257C43.3265 9.34234 43.2193 9.75508 43.1963 10.2077C43.1733 10.6604 43.2199 11.1444 43.342 11.6334C43.4699 12.1457 43.6442 12.5961 43.8621 12.9731C44.0944 13.3587 44.3702 13.6709 44.6895 13.9096C45.0088 14.1483 45.3774 14.2872 45.7808 14.3673C46.1929 14.4328 46.6427 14.4015 47.1418 14.2704C47.6409 14.1393 48.05 13.945 48.3807 13.6845C48.7085 13.4123 48.9666 13.1088 49.1348 12.7421C49.3029 12.3754 49.3869 11.9687 49.3983 11.5191C49.4242 11.0781 49.366 10.5971 49.2381 10.0849Z" fill="#F3F3F3"/>
<path d="M59.4336 9.10867L63.991 9.60227L64.3548 6.06896L65.5001 6.193L64.6176 14.7637L63.4723 14.6396L63.8877 10.605L59.3304 10.1114L58.9149 14.146L57.7696 14.022L58.6522 5.4513L59.7975 5.57535L59.4336 9.10867Z" fill="#F3F3F3"/>
<path d="M72.627 8.3466L72.9408 17.677L71.7233 17.269L71.6601 14.4638L68.4515 13.3883L66.7398 15.5987L65.5906 15.2135L71.3072 7.90424L72.627 8.3466ZM69.0129 12.6147L71.6298 13.4918L71.5518 9.42885L69.0129 12.6147Z" fill="#F3F3F3"/>
<path d="M76.3674 14.9811C76.1011 15.4509 75.9204 15.9158 75.8208 16.3592C75.7212 16.8027 75.7027 17.2246 75.7712 17.6147C75.8339 18.0151 75.9791 18.3671 76.1952 18.6915C76.4113 19.0158 76.6997 19.2855 77.0605 19.5006C77.38 19.691 77.6879 19.8047 78.0166 19.8331C78.3291 19.8657 78.6284 19.8486 78.9101 19.7651C79.208 19.6773 79.4707 19.5546 79.7142 19.3925C79.9534 19.2138 80.1719 19.0228 80.3448 18.7907L81.3035 19.3621C81.1586 19.5691 80.9931 19.7637 80.7908 19.9504C80.5782 20.1309 80.3612 20.2949 80.1191 20.4299C79.8771 20.565 79.6204 20.6774 79.3387 20.7608C79.0672 20.8504 78.7767 20.9007 78.4671 20.9117C78.1635 20.9123 77.851 20.8796 77.5313 20.7868C77.2159 20.7106 76.8934 20.5741 76.5635 20.3775C76.3367 20.2423 76.1115 20.0801 75.8834 19.8743C75.6494 19.679 75.439 19.4418 75.2567 19.1795C75.0582 18.9215 74.9099 18.6236 74.7793 18.2944C74.6487 17.9651 74.5786 17.6021 74.5632 17.2158C74.5477 16.8294 74.5986 16.3989 74.7145 15.9512C74.82 15.4973 75.0288 15.0072 75.3187 14.4956C75.6027 13.9945 75.9145 13.5659 76.2321 13.2245C76.5497 12.883 76.879 12.6184 77.2155 12.4139C77.5461 12.2199 77.8839 12.0861 78.229 12.0125C78.5638 11.9327 78.8955 11.907 79.2301 11.9249C79.5588 11.9532 79.8801 12.019 80.1836 12.1161C80.4915 12.2298 80.7875 12.3644 81.0555 12.5242C81.3957 12.7269 81.6812 12.953 81.9137 13.1754C82.1506 13.4144 82.3447 13.6558 82.5064 13.9058C82.6519 14.1602 82.7546 14.4169 82.8308 14.6718C82.9069 14.9267 82.9566 15.1798 82.9694 15.4249C82.9822 15.6699 82.9581 15.907 82.9135 16.1318C82.8688 16.3566 82.8095 16.5586 82.7192 16.7423L81.7503 16.1647C81.8245 15.8877 81.856 15.6132 81.8388 15.3515C81.8216 15.0899 81.772 14.8368 81.6575 14.6009C81.5532 14.3712 81.4165 14.15 81.2415 13.9479C81.0502 13.7501 80.8368 13.567 80.5894 13.4196C80.2081 13.1922 79.8265 13.0625 79.4344 13.0244C79.0586 12.9819 78.6723 13.0309 78.3079 13.1629C77.9376 13.3053 77.5849 13.5141 77.2585 13.8223C76.9321 14.1306 76.6277 14.5217 76.3674 14.9811Z" fill="#F3F3F3"/>
<path d="M91.5473 27.546C91.5206 27.7504 91.413 27.9269 91.2528 28.0532C91.0926 28.1795 90.9175 28.2259 90.7086 28.2073C90.502 28.1717 90.3375 28.0722 90.2151 27.909C90.0927 27.7457 90.0413 27.5571 90.068 27.3528C90.1041 27.1409 90.1929 26.9793 90.3531 26.853C90.5133 26.7267 90.7072 26.6654 90.9067 26.6915C91.1061 26.7175 91.2706 26.817 91.393 26.9802C91.5225 27.153 91.5668 27.3321 91.5473 27.546Z" fill="#F3F3F3"/>
<path d="M101.547 48.0046C101.197 48.1326 100.836 48.2266 100.47 48.2711C100.097 48.3311 99.7352 48.3488 99.3684 48.3171C99.0016 48.2854 98.6494 48.2227 98.304 48.1065C97.9586 47.9902 97.6312 47.8163 97.337 47.5918C97.0316 47.3715 96.7593 47.1007 96.5164 46.768C96.2735 46.4353 96.075 46.048 95.9171 45.5947C95.7632 45.1527 95.6735 44.7128 95.6559 44.2976C95.6423 43.8936 95.6816 43.4959 95.7818 43.1269C95.8747 42.7734 96.0205 42.4261 96.2159 42.1117C96.4074 41.786 96.6372 41.4974 96.9053 41.2458C97.1695 40.9829 97.4607 40.7612 97.7824 40.5539C98.0967 40.362 98.4342 40.2 98.7835 40.0721C99.4145 39.8409 100.009 39.7251 100.602 39.7124C101.184 39.7038 101.725 39.7994 102.211 39.9918C102.702 40.1955 103.141 40.5075 103.513 40.9204C103.901 41.3406 104.196 41.8587 104.413 42.482C104.63 43.1053 104.726 43.7091 104.682 44.2748C104.652 44.8477 104.502 45.363 104.248 45.8392C103.995 46.3154 103.631 46.7298 103.176 47.101C102.709 47.4764 102.178 47.7735 101.547 48.0046ZM101.168 46.9167C101.641 46.7434 102.068 46.5102 102.43 46.237C102.792 45.9637 103.074 45.6431 103.285 45.2978C103.491 44.9411 103.609 44.5526 103.645 44.1435C103.688 43.7189 103.624 43.2821 103.466 42.8288C103.309 42.3755 103.088 41.9964 102.792 41.6957C102.512 41.4022 102.18 41.1788 101.804 41.0482C101.425 40.9062 101.008 40.8415 100.559 40.8655C100.11 40.8894 99.6357 40.9866 99.1624 41.16C98.6666 41.3416 98.2357 41.5634 97.8808 41.8212C97.5186 42.0945 97.2324 42.4038 97.0224 42.7491C96.8123 43.0944 96.7048 43.4788 96.6581 43.892C96.6267 44.3124 96.6939 44.7606 96.8636 45.2479C97.0333 45.7352 97.2583 46.1256 97.5423 46.4304C97.8376 46.7311 98.1583 46.9587 98.5342 47.0893C98.91 47.22 99.3185 47.262 99.7636 47.2267C100.201 47.2069 100.672 47.0984 101.168 46.9167Z" fill="#F3F3F3"/>
<path d="M103.139 57.3892L102.841 61.9635L106.384 62.2067L106.309 63.3562L97.7136 62.7664L97.7886 61.6168L101.835 61.8945L102.134 57.3202L98.0871 57.0425L98.162 55.893L106.758 56.4828L106.683 57.6324L103.139 57.3892Z" fill="#F3F3F3"/>
<path d="M104.526 70.8185L95.2904 71.3836L95.634 70.1464L98.4121 70.0078L99.3175 66.7472L97.0403 65.082L97.3646 63.9142L104.898 69.4773L104.526 70.8185ZM100.113 67.292L99.3742 69.9514L103.399 69.7643L100.113 67.292Z" fill="#F3F3F3"/>
<path d="M98.1812 74.9554C97.7069 74.6971 97.2417 74.5258 96.8016 74.4364C96.3616 74.347 95.9466 74.3396 95.5673 74.42C95.1774 74.4945 94.8392 74.6519 94.5317 74.8806C94.2242 75.1093 93.9739 75.4102 93.7808 75.7831C93.6098 76.1135 93.5135 76.4299 93.502 76.7652C93.4856 77.0841 93.5173 77.3882 93.6132 77.6727C93.7141 77.9735 93.8476 78.2375 94.0188 78.481C94.206 78.7195 94.4043 78.9368 94.6407 79.1065L94.1276 80.0976C93.9173 79.9557 93.7181 79.7926 93.5248 79.5917C93.3371 79.3802 93.1655 79.1638 93.0209 78.9212C92.8763 78.6785 92.7533 78.4203 92.6574 78.1358C92.556 77.862 92.4922 77.5677 92.466 77.2529C92.4504 76.9439 92.4668 76.625 92.542 76.2971C92.6011 75.9741 92.719 75.6421 92.8955 75.3011C93.0169 75.0666 93.1649 74.833 93.3555 74.5953C93.5355 74.3518 93.7578 74.1313 94.0061 73.9387C94.2494 73.7297 94.5344 73.5706 94.851 73.4288C95.1676 73.287 95.5203 73.2059 95.8986 73.1797C96.277 73.1535 96.702 73.1936 97.1471 73.2994C97.5977 73.3945 98.089 73.5937 98.6054 73.8749C99.1113 74.1504 99.5474 74.4562 99.8982 74.7702C100.249 75.0842 100.525 75.4121 100.742 75.749C100.949 76.0802 101.097 76.4204 101.187 76.7696C101.282 77.1082 101.323 77.4451 101.323 77.7861C101.311 78.1214 101.262 78.4501 101.182 78.7616C101.086 79.0781 100.969 79.383 100.825 79.6601C100.643 80.0118 100.436 80.3085 100.229 80.5511C100.006 80.7987 99.7789 81.0028 99.5416 81.1741C99.2992 81.3291 99.0524 81.4405 98.806 81.525C98.5597 81.6094 98.3138 81.6668 98.074 81.6864C97.8341 81.7061 97.6003 81.688 97.3775 81.6487C97.1547 81.6093 96.9535 81.5544 96.7688 81.4675L97.2874 80.4658C97.5629 80.5338 97.8339 80.5584 98.0898 80.5338C98.3457 80.5093 98.5915 80.4519 98.8173 80.3289C99.0375 80.2166 99.2477 80.0715 99.4374 79.8879C99.622 79.6879 99.791 79.4658 99.9234 79.21C100.128 78.8157 100.236 78.4239 100.254 78.0238C100.277 77.6402 100.209 77.2483 100.062 76.8811C99.9037 76.5081 99.6813 76.1547 99.3626 75.8309C99.0439 75.5071 98.6449 75.2079 98.1812 74.9554Z" fill="#F3F3F3"/>
<path d="M83.6558 95.2743C83.474 95.3626 83.2701 95.3666 83.0778 95.2984C82.8856 95.2302 82.7502 95.1058 82.6492 94.9172C82.5634 94.7212 82.553 94.5266 82.6182 94.3333C82.6834 94.14 82.8088 93.9935 82.9905 93.9052C83.1836 93.8209 83.3649 93.8089 83.5572 93.8771C83.7494 93.9453 83.9074 94.0777 83.9971 94.2623C84.0868 94.4469 84.0971 94.6415 84.0319 94.8348C83.9629 95.0395 83.8413 95.1746 83.6558 95.2743Z" fill="#F3F3F3"/>
<path d="M60.2261 105.058C60.1159 104.703 60.0398 104.336 60.013 103.966C59.9712 103.589 59.9707 103.223 60.0195 102.854C60.0682 102.484 60.1468 102.13 60.2782 101.785C60.4096 101.439 60.5973 101.113 60.8335 100.821C61.066 100.518 61.3471 100.249 61.688 100.012C62.0288 99.7744 62.4217 99.583 62.8781 99.4341C63.323 99.2889 63.7628 99.2084 64.1748 99.2001C64.5754 99.1956 64.9675 99.2443 65.3281 99.3538C65.6737 99.4556 66.0108 99.6106 66.3129 99.8149C66.6264 100.016 66.9014 100.254 67.1379 100.53C67.3857 100.803 67.5916 101.102 67.7817 101.431C67.9568 101.752 68.1013 102.096 68.2115 102.452C68.4107 103.093 68.4972 103.696 68.4819 104.295C68.4629 104.881 68.3428 105.425 68.1293 105.912C67.9045 106.401 67.5749 106.837 67.1483 107.204C66.714 107.585 66.187 107.871 65.5596 108.076C64.9322 108.28 64.3298 108.363 63.7717 108.306C63.2057 108.263 62.7026 108.099 62.243 107.833C61.7834 107.566 61.3902 107.19 61.044 106.722C60.6944 106.243 60.4253 105.7 60.2261 105.058ZM61.3213 104.701C61.4706 105.182 61.6813 105.618 61.9348 105.99C62.1884 106.361 62.4925 106.653 62.8246 106.873C63.168 107.089 63.5471 107.218 63.9506 107.263C64.369 107.316 64.8045 107.262 65.2608 107.113C65.7172 106.964 66.1029 106.75 66.4146 106.459C66.7185 106.183 66.9554 105.853 67.1025 105.477C67.261 105.097 67.3446 104.678 67.3421 104.225C67.3396 103.771 67.2657 103.29 67.1164 102.809C66.9599 102.305 66.7606 101.865 66.522 101.501C66.2685 101.129 65.9758 100.834 65.6437 100.614C65.3117 100.394 64.9361 100.277 64.5291 100.22C64.1143 100.179 63.6673 100.237 63.1768 100.397C62.6863 100.557 62.2891 100.775 61.9738 101.055C61.6621 101.346 61.4217 101.664 61.2746 102.04C61.1275 102.416 61.0666 102.827 61.0806 103.277C61.0796 103.719 61.1648 104.196 61.3213 104.701Z" fill="#F3F3F3"/>
<path d="M52.7533 105.974L48.1748 105.749L48.0093 109.297L46.8587 109.241L47.2601 100.634L48.4107 100.691L48.2217 104.742L52.8002 104.967L52.9892 100.915L54.1398 100.972L53.7384 109.578L52.5878 109.522L52.7533 105.974Z" fill="#F3F3F3"/>
<path d="M40.8753 107.244L40.0359 97.9528L41.2751 98.2888L41.4964 101.084L44.7625 101.969L46.348 99.6641L47.5178 99.9813L42.2188 107.608L40.8753 107.244ZM44.2453 102.774L41.5815 102.052L41.8885 106.101L44.2453 102.774Z" fill="#F3F3F3"/>
<path d="M37.1689 101.098C37.4081 100.614 37.5622 100.14 37.6364 99.6915C37.7107 99.2433 37.7051 98.8212 37.6144 98.4361C37.5291 98.0401 37.3639 97.6974 37.1295 97.3863C36.8952 97.0751 36.5917 96.8227 36.219 96.629C35.8889 96.4575 35.5749 96.3618 35.2449 96.3526C34.9309 96.3381 34.6328 96.3725 34.3561 96.472C34.0635 96.5768 33.8081 96.7145 33.574 96.8903C33.3453 97.0824 33.1378 97.2856 32.9783 97.5271L31.9881 97.0124C32.121 96.7976 32.2752 96.5938 32.4667 96.3959C32.6688 96.2035 32.8763 96.0274 33.1104 95.8786C33.3445 95.7299 33.5946 95.6029 33.8713 95.5034C34.1373 95.3983 34.4247 95.3313 34.7334 95.3024C35.0367 95.2843 35.3507 95.2988 35.6754 95.3729C35.9948 95.4308 36.3248 95.5482 36.6656 95.7253C36.8998 95.8471 37.1341 95.9959 37.3737 96.1881C37.6186 96.3695 37.8423 96.5939 38.0393 96.845C38.2524 97.091 38.4175 97.3796 38.5667 97.7006C38.7159 98.0215 38.8066 98.3797 38.8441 98.7642C38.8815 99.1488 38.8552 99.5813 38.7649 100.035C38.6854 100.494 38.5047 100.995 38.2442 101.522C37.989 102.038 37.7019 102.484 37.404 102.843C37.1062 103.202 36.7923 103.485 36.4678 103.708C36.1486 103.921 35.8187 104.074 35.4781 104.167C35.1482 104.266 34.8182 104.311 34.4829 104.313C34.153 104.303 33.8283 104.256 33.5195 104.177C33.2055 104.081 32.902 103.964 32.6252 103.82C32.2738 103.638 31.9757 103.429 31.7307 103.22C31.4805 102.996 31.2728 102.766 31.097 102.526C30.9372 102.28 30.82 102.03 30.7293 101.78C30.6387 101.53 30.5747 101.281 30.548 101.037C30.5212 100.793 30.5317 100.555 30.5635 100.328C30.5954 100.102 30.6431 99.8966 30.7229 99.7081L31.7237 100.228C31.6654 100.509 31.6495 100.785 31.6816 101.045C31.7137 101.305 31.7777 101.554 31.9056 101.783C32.0228 102.006 32.1719 102.219 32.3583 102.411C32.5607 102.597 32.7843 102.767 33.0398 102.9C33.4338 103.105 33.8224 103.212 34.2162 103.228C34.5941 103.248 34.9773 103.177 35.3338 103.024C35.6956 102.861 36.0361 102.632 36.3446 102.306C36.6531 101.979 36.935 101.571 37.1689 101.098Z" fill="#F3F3F3"/>
<path d="M51.3198 64.295V51.2189C51.3198 50.3044 52.3605 49.7792 53.0962 50.3225L61.7108 56.6838C62.3043 57.122 62.3158 58.0056 61.7339 58.4592L53.1193 65.1739C52.3875 65.7443 51.3198 65.2228 51.3198 64.295Z" fill="#F3F3F3" stroke="#F3F3F3" stroke-width="0.557194"/>
</g>
<defs>
<filter id="filter0_d_1030_840" x="2.3291" y="3.40283" width="107.429" height="110.175" filterUnits="userSpaceOnUse" color-interpolation-filters="sRGB">
<feFlood flood-opacity="0" result="BackgroundImageFix"/>
<feColorMatrix in="SourceAlpha" type="matrix" values="0 0 0 0 0 0 0 0 0 0 0 0 0 0 0 0 0 0 127 0" result="hardAlpha"/>
<feOffset dy="1"/>
<feGaussianBlur stdDeviation="1.5"/>
<feComposite in2="hardAlpha" operator="out"/>
<feColorMatrix type="matrix" values="0 0 0 0 0 0 0 0 0 0 0 0 0 0 0 0 0 0 0.5 0"/>
<feBlend mode="normal" in2="BackgroundImageFix" result="effect1_dropShadow_1030_840"/>
<feBlend mode="normal" in="SourceGraphic" in2="effect1_dropShadow_1030_840" result="shape"/>
</filter>
</defs>
</svg>
