<svg width="83" height="89" fill="none" xmlns="http://www.w3.org/2000/svg"><g opacity=".75" filter="url(#a)"><mask id="b" fill="#fff"><path fill-rule="evenodd" clip-rule="evenodd" d="M57.352 10.487H24.969v35.98H10L41.16 78.85l31.16-32.382H57.353V10.487Z"/></mask><path d="M24.969 10.487v-1h-1v1h1Zm32.383 0h1v-1h-1v1Zm-32.383 35.98v1h1v-1h-1Zm-14.969 0v-1H7.65l1.63 1.694.72-.693ZM41.16 78.85l-.72.694.72.749.72-.75-.72-.693Zm31.16-32.382.721.693 1.63-1.693h-2.35v1Zm-14.968 0h-1v1h1v-1ZM24.969 11.487h32.383v-2H24.969v2Zm1 34.98v-35.98h-2v35.98h2Zm-1-1H10v2h14.969v-2Zm-15.69 1.694 31.16 32.383 1.442-1.387-31.16-32.383-1.442 1.387Zm32.602 32.383L73.04 47.16l-1.44-1.386-31.16 32.383 1.44 1.387Zm30.44-34.076H57.35v2h14.97v-2ZM56.35 10.487v35.98h2v-35.98h-2Z" fill="#F3F3F3" mask="url(#b)"/></g><defs><filter id="a" x="0" y=".487" width="82.321" height="88.364" filterUnits="userSpaceOnUse" color-interpolation-filters="sRGB"><feFlood flood-opacity="0" result="BackgroundImageFix"/><feColorMatrix in="SourceAlpha" values="0 0 0 0 0 0 0 0 0 0 0 0 0 0 0 0 0 0 127 0" result="hardAlpha"/><feOffset dy="1"/><feGaussianBlur stdDeviation="1"/><feComposite in2="hardAlpha" operator="out"/><feColorMatrix values="0 0 0 0 0 0 0 0 0 0 0 0 0 0 0 0 0 0 0.55 0"/><feBlend in2="BackgroundImageFix" result="effect1_dropShadow_1159_87"/><feColorMatrix in="SourceAlpha" values="0 0 0 0 0 0 0 0 0 0 0 0 0 0 0 0 0 0 127 0" result="hardAlpha"/><feOffset/><feGaussianBlur stdDeviation="5"/><feComposite in2="hardAlpha" operator="out"/><feColorMatrix values="0 0 0 0 0.0916667 0 0 0 0 0.0916667 0 0 0 0 0.0916667 0 0 0 0.8 0"/><feBlend in2="effect1_dropShadow_1159_87" result="effect2_dropShadow_1159_87"/><feBlend in="SourceGraphic" in2="effect2_dropShadow_1159_87" result="shape"/><feColorMatrix in="SourceAlpha" values="0 0 0 0 0 0 0 0 0 0 0 0 0 0 0 0 0 0 127 0" result="hardAlpha"/><feOffset dx="1" dy="1"/><feGaussianBlur stdDeviation=".5"/><feComposite in2="hardAlpha" operator="arithmetic" k2="-1" k3="1"/><feColorMatrix values="0 0 0 0 1 0 0 0 0 1 0 0 0 0 1 0 0 0 0.5 0"/><feBlend in2="shape" result="effect3_innerShadow_1159_87"/></filter></defs></svg>